<?xml version="1.0" encoding="UTF-8" standalone="no"?>
<!-- Generator: Adobe Illustrator 20.0.0, SVG Export Plug-In . SVG Version: 6.00 Build 0)  -->

<svg
   xmlns:dc="http://purl.org/dc/elements/1.1/"
   xmlns:cc="http://creativecommons.org/ns#"
   xmlns:rdf="http://www.w3.org/1999/02/22-rdf-syntax-ns#"
   xmlns:svg="http://www.w3.org/2000/svg"
   xmlns="http://www.w3.org/2000/svg"
   xmlns:sodipodi="http://sodipodi.sourceforge.net/DTD/sodipodi-0.dtd"
   xmlns:inkscape="http://www.inkscape.org/namespaces/inkscape"
   version="1.1"
   id="Layer_1"
   x="0px"
   y="0px"
   viewBox="0 0 816.24 816.24"
   style="enable-background:new 0 0 816.24 816.24;"
   xml:space="preserve"
   sodipodi:docname="icon.svg"
   inkscape:version="0.92.3 (2405546, 2018-03-11)"><metadata
   id="metadata13"><rdf:RDF><cc:Work
       rdf:about=""><dc:format>image/svg+xml</dc:format><dc:type
         rdf:resource="http://purl.org/dc/dcmitype/StillImage" /><dc:title></dc:title></cc:Work></rdf:RDF></metadata><defs
   id="defs11"><marker
     inkscape:stockid="Arrow2Lend"
     orient="auto"
     refY="0.0"
     refX="0.0"
     id="marker3135"
     style="overflow:visible;"
     inkscape:isstock="true"><path
       id="path3133"
       style="fill-rule:evenodd;stroke-width:0.625;stroke-linejoin:round;stroke:#000000;stroke-opacity:1;fill:#000000;fill-opacity:1"
       d="M 8.7185878,4.0337352 L -2.2072895,0.016013256 L 8.7185884,-4.0017078 C 6.9730900,-1.6296469 6.9831476,1.6157441 8.7185878,4.0337352 z "
       transform="scale(1.1) rotate(180) translate(1,0)" /></marker><marker
     inkscape:stockid="Arrow2Lend"
     orient="auto"
     refY="0.0"
     refX="0.0"
     id="Arrow2Lend"
     style="overflow:visible;"
     inkscape:isstock="true"><path
       id="path1184"
       style="fill-rule:evenodd;stroke-width:0.625;stroke-linejoin:round;stroke:#000000;stroke-opacity:1;fill:#000000;fill-opacity:1"
       d="M 8.7185878,4.0337352 L -2.2072895,0.016013256 L 8.7185884,-4.0017078 C 6.9730900,-1.6296469 6.9831476,1.6157441 8.7185878,4.0337352 z "
       transform="scale(1.1) rotate(180) translate(1,0)" /></marker><marker
     inkscape:stockid="Arrow1Lend"
     orient="auto"
     refY="0.0"
     refX="0.0"
     id="Arrow1Lend"
     style="overflow:visible;"
     inkscape:isstock="true"><path
       id="path1166"
       d="M 0.0,0.0 L 5.0,-5.0 L -12.5,0.0 L 5.0,5.0 L 0.0,0.0 z "
       style="fill-rule:evenodd;stroke:#000000;stroke-width:1pt;stroke-opacity:1;fill:#000000;fill-opacity:1"
       transform="scale(0.8) rotate(180) translate(12.5,0)" /></marker><marker
     inkscape:stockid="Arrow2Lstart"
     orient="auto"
     refY="0.0"
     refX="0.0"
     id="Arrow2Lstart"
     style="overflow:visible"
     inkscape:isstock="true"><path
       id="path1181"
       style="fill-rule:evenodd;stroke-width:0.625;stroke-linejoin:round;stroke:#000000;stroke-opacity:1;fill:#000000;fill-opacity:1"
       d="M 8.7185878,4.0337352 L -2.2072895,0.016013256 L 8.7185884,-4.0017078 C 6.9730900,-1.6296469 6.9831476,1.6157441 8.7185878,4.0337352 z "
       transform="scale(1.1) translate(1,0)" /></marker></defs><sodipodi:namedview
   pagecolor="#ffffff"
   bordercolor="#666666"
   borderopacity="1"
   objecttolerance="10"
   gridtolerance="10"
   guidetolerance="10"
   inkscape:pageopacity="0"
   inkscape:pageshadow="2"
   inkscape:window-width="1680"
   inkscape:window-height="987"
   id="namedview9"
   showgrid="false"
   inkscape:zoom="1.0021562"
   inkscape:cx="245.96963"
   inkscape:cy="408.12"
   inkscape:window-x="-8"
   inkscape:window-y="-8"
   inkscape:window-maximized="1"
   inkscape:current-layer="Layer_1" />
<style
   type="text/css"
   id="style2">
	.st0{fill:#1A1A18;}
</style>

<path
   id="path831"
   style="fill:#000000;stroke-width:2.8437624"
   d="m 548.59214,48.20368 c -14.62299,1.626062 -61.40549,2.131485 -171.5039,2.128906 -182.8056,-0.0042 -183.63982,0.04606 -204.44532,12.308594 -10.9141,6.432645 -14.85742,12.777697 -14.85742,23.910152 0,6.35934 -5.27855,13.32079 -24.93945,32.890628 -20.7785,20.68219 -26.43465,24.82227 -33.906254,24.82226 -16.65116,5e-5 -37.326699,23.69263 -51.466799,58.97852 l -7.703125,19.22656 -0.841797,161.53125 c -0.8173,156.70481 -0.664188,162.18428 5.132812,183.31446 5.1822,18.8894 15.07205,41.68426 20.03125,46.16992 0.8646,0.78204 4.3518,6.00095 7.75,11.59765 5.7398,9.45335 16.316784,16.83985 24.113281,16.83985 5.949802,0 56.044712,55.03808 56.095712,61.63086 0.09,11.67902 33.24023,35.57911 67.95703,48.99414 l 18.82422,7.27539 111.61914,0.94726 109.27539,0.92969 c 0.41844,-0.1866 0.8465,-0.15072 1.31054,-0.14844 0.54503,2e-5 1.08982,-0.0131 1.63477,-0.002 0.60836,0.0201 1.21289,0.0408 1.81445,-0.0801 0.0756,0.10381 0.15869,0.20343 0.23828,0.30469 0.17169,0.004 0.34396,0.004 0.51563,0.006 0.45381,-0.0238 1.66277,-0.17942 2.27344,0.11133 l 55.10742,-1.19531 c 68.3724,-1.48188 81.54676,-4.74151 117.2793,-29.01368 20.66638,-14.03809 29.76171,-24.2325 29.76171,-33.35742 0,-1.67728 11.10223,-14.73281 24.66993,-29.01367 17.5027,-18.42278 27.62183,-26.79559 34.83593,-28.82422 8.2955,-2.33274 12.82381,-6.8762 24.59571,-24.66992 26.6264,-40.24684 25.27304,-28.92444 26.18164,-219.11914 l 0.79882,-167.02149 -7.32617,-21.81835 c -7.6795,-22.87688 -25.82336,-51.79196 -37.16406,-59.22266 -3.6693,-2.4042 -10.72122,-4.3711 -15.66992,-4.3711 -7.4724,0 -13.27291,-4.18319 -34.22461,-24.68554 -22.9101,-22.418758 -25.22852,-25.671048 -25.22852,-35.402344 0,-8.903458 -1.68216,-11.998642 -9.94726,-18.302734 -15.9243,-12.146016 -28.4985,-15.192423 -63.2793,-15.328125 -12.98991,-0.05068 -21.39266,-0.372252 -26.35547,-1.089844 -0.0508,0.174919 -0.27237,0.314382 -0.77734,0.392578 -0.12064,0.01868 -0.24069,0.036 -0.36133,0.05469 -0.67685,0.02541 -1.26965,-0.02684 -1.92187,-0.210938 -0.28227,-0.07967 -0.58201,-0.109767 -0.85352,-0.220703 -0.26717,-0.10916 -0.49846,-0.288688 -0.74805,-0.433594 0.15079,-0.02858 0.34565,-0.05938 0.19141,-0.08789 -0.46887,-0.08665 -0.98018,0.02195 -1.45313,-0.01172 -0.81539,0.107689 -1.5223,0.107945 -2.32421,-0.126953 -0.0813,-0.02382 -0.17927,-0.03846 -0.22852,-0.107422 -0.024,-0.03367 0.0688,-0.04582 0.10352,-0.06836 -0.83128,0.02185 -1.70153,0.157701 -2.50586,-0.113281 -1.25513,-0.546673 -0.92282,0.529867 -2.07813,-0.31836 z m -33.70508,8.339844 c 85.57809,0.03541 101.64502,1.050965 112.11914,4.167969 18.8614,5.612976 28.4375,14.950137 28.4375,27.726559 0,7.96777 3.93607,13.130118 28.16407,36.933598 24.1984,23.77443 29.15486,27.42085 35.19726,25.90429 15.4463,-3.87677 43.08539,33.49229 51.65039,69.83204 4.3019,18.25281 5.94476,69.34673 2.62696,81.72851 -0.9475,3.53627 -4.45091,7.03176 -7.78321,7.76758 -3.3322,0.73585 -41.12668,2.62085 -83.98828,4.18945 -66.1547,2.42103 -78.72309,3.57035 -83.17969,7.60352 -4.8406,4.38076 -5.25,10.36272 -5.25,76.75976 0,71.58344 0.0378,72.03348 6.39844,76.05078 4.5049,2.84521 20.28491,4.57062 53.32031,5.82813 107.4606,4.09061 114.98682,4.69413 118.72852,9.51758 4.9926,6.43609 4.46723,49.02854 -0.88477,71.74414 -4.7577,20.19341 -20.25894,50.93606 -31.90234,63.27344 -4.0593,4.30119 -10.43402,7.82031 -14.16602,7.82031 -4.4469,0 -10.38783,4.16532 -17.24023,12.08594 -5.7508,6.64729 -18.34713,19.84388 -27.99023,29.32421 -11.9941,11.79172 -17.83338,19.8469 -18.48438,25.49805 -1.5913,13.81409 -37.10175,37.98408 -70.62305,48.07031 -13.3434,4.01488 -34.64505,4.84094 -145.03125,5.61524 -159.978,1.12218 -205.78396,-0.75285 -227.88086,-9.32227 -23.598,-9.1516 -56.01114,-32.77052 -58.12304,-42.35351 -0.9426,-4.27713 -1.92158,-8.5714 -2.17578,-9.54297 -0.2542,-0.97157 -12.82023,-14.72814 -27.92383,-30.57031 -20.0242,-21.00335 -29.323654,-28.80469 -34.33985,-28.80469 -7.0427,0 -19.246093,-10.48245 -19.246093,-16.5332 0,-1.85429 -1.033675,-3.37305 -2.296875,-3.37305 -4.5117,0 -20.883444,-37.55314 -25.152344,-57.69531 -4.5348,-21.39703 -4.118613,-62.62814 0.679687,-67.34961 1.4284,-1.40553 39.708211,-4.02229 85.066415,-5.81446 82.2477,-3.24974 82.48588,-3.2768 88.86718,-10.29492 6.244,-6.86706 6.39844,-8.60796 6.39844,-72.09961 0,-66.24565 -1.41136,-77.40392 -10.22266,-80.78515 -2.7343,-1.04927 -40.90371,-3.24676 -84.82031,-4.88477 -62.901448,-2.34608 -80.752983,-3.85473 -84.113283,-7.10742 -5.3754,-5.20323 -6.928582,-51.67095 -2.550782,-76.30664 5.218,-29.36367 25.975375,-68.258 40.609375,-76.08985 3.2425,-1.73537 9.764136,-3.49813 14.49024,-3.91601 6.5362,-0.57795 14.93797,-7.05292 35.10937,-27.05469 16.1065,-15.97113 26.56572,-28.616498 26.63672,-32.207028 0.2702,-13.571689 6.0796,-22.156235 19.1211,-28.253907 12.9065,-6.034518 15.12431,-6.102961 220.63281,-6.832031 46.34012,-0.164399 82.58921,-0.261804 111.11523,-0.25 z m -244.27929,5.548828 c 0.008,0.148556 0.002,0.108496 0.0371,0.595703 h 0.006 c 0.004,-0.05923 0.006,-0.09735 0.01,-0.15625 -0.0171,-0.213389 -0.025,-0.277594 -0.0391,-0.435547 -0.005,-0.0011 -0.009,-0.0028 -0.0137,-0.0039 z m 0.0527,0.439453 c 0.003,0.03235 0.0104,0.115301 0.0137,0.15625 h 0.0176 c 0.0133,-0.152086 0.0478,-0.531406 0.0508,-0.564453 -0.0221,-0.0055 -0.0459,-0.01027 -0.0684,-0.01563 -0.009,0.171132 -0.003,0.245012 -0.0137,0.423828 z m 75.65039,5.517578 c -0.82333,0.29876 -1.63869,0.266212 -2.49805,0.259766 -1.1601,-2.9e-5 -2.32036,-3.79e-4 -3.48046,0 -1.09674,5.69e-4 -2.19234,-1.38e-4 -3.28907,-0.002 -1.11653,0.0015 -2.23324,0.02075 -3.34961,-0.0059 -0.33754,-0.0083 -0.67351,0.0087 -1.00976,0.01563 -3.00743,1.553229 -11.36093,2.009766 -30.16992,2.009766 -15.2448,0 -23.26651,-0.204382 -27.11133,-1.041016 -0.12014,-0.0028 -0.2411,-0.0054 -0.36524,-0.0098 0.0469,0.234276 0.0916,0.469344 0.14063,0.703125 -1.01647,0.254825 -1.66529,0.136973 -2.38867,-0.25586 -0.30839,-0.100645 -0.47488,-0.157376 -0.78321,-0.263671 -0.55571,0.165362 -1.09666,0.155807 -1.71875,0.146484 -1.07896,1e-5 -2.15932,8.6e-5 -3.23828,0 -1.0951,-4.7e-5 -2.19005,-7.7e-5 -3.28515,0 -1.12771,-5.63e-4 -2.25512,-0.004 -3.38282,0.002 -1.09376,0.0038 -2.1876,-0.01091 -3.28125,-0.01953 -0.27557,0.01304 -0.95515,0.04526 -1.6875,0.06055 -2.81623,0.493911 -7.10078,0.677734 -13.43164,0.677734 -13.9547,0 -18.58125,1.045333 -19.90625,4.498047 -3.3324,8.684285 -1.90485,76.655672 1.68555,80.246102 4.8623,4.86225 153.25108,4.86225 158.11328,0 4.7379,-4.73789 4.7379,-76.59415 0,-81.33204 -1.8839,-1.883902 -10.93548,-3.412109 -20.20898,-3.412109 -10.48205,0 -14.62752,-0.506038 -15.35352,-2.277344 z m 201.56445,1.121094 c -0.42557,0.0034 -0.85169,0.0074 -1.27734,0.0098 -3.86156,0.923252 -12.31497,1.146484 -29.07617,1.146484 -15.672,0 -24.0892,-0.19139 -28.27735,-0.970703 -4.5e-4,0.227212 0.006,0.454483 -0.006,0.68164 -0.007,0.129402 -0.25909,-6e-6 -0.38868,0 -0.0404,6e-6 -0.0807,-4e-6 -0.12109,0 -0.77635,1.2e-4 -1.55178,1.03e-4 -2.32812,0 -1.01869,-0.0011 -2.038,-0.0047 -3.05665,0.0039 -1.05281,0.0057 -2.10378,-0.01201 -3.15625,-0.0332 -1.50223,0.07371 -3.0738,0.381283 -4.48632,-0.304688 0.20114,-0.257439 0.11967,-0.09805 -0.52735,-0.09766 -0.93605,5.55e-4 -1.87255,0.0016 -2.80859,-0.002 -1.0642,-0.0029 -2.12728,0.0076 -3.19141,0.01367 -0.0325,-9.68e-4 -0.0652,-0.0028 -0.0976,-0.0039 -2.63634,0.51578 -6.65387,0.712891 -12.59571,0.712891 -13.8599,0 -17.50085,1.007497 -19.90625,5.501953 -1.6191,3.025314 -2.94336,20.849432 -2.94336,39.609376 0,27.21647 0.90295,35.01046 4.46875,38.57617 3.8372,3.83727 14.98877,4.46319 78.91407,4.42579 41.8435,-0.0245 76.31343,-1.22143 78.71093,-2.73438 5.0931,-3.21389 7.76984,-58.038214 3.61914,-74.119143 l -2.53893,-9.837875 -18.88672,-0.837891 c -5.14177,-0.228066 -8.90609,-0.495823 -11.62109,-0.875 -0.44602,-2.73e-4 -0.82589,0.0017 -1.20703,0.002 -0.22667,0 -0.45302,3.4e-5 -0.67969,0 -0.7967,0.04936 -1.58907,0.103024 -2.37109,0 -0.03,2e-6 -0.0598,0 -0.0899,0 -1.16191,1.24e-4 -2.32443,1.7e-5 -3.48632,0 -1.29499,0.02663 -1.77928,0.07006 -3.02735,-0.548828 -0.002,0.0025 0.002,0.0056 -0.002,0.0078 -0.31133,0.170847 -2.56102,0.130419 -2.98242,0.121094 -0.69194,-0.02716 -1.38587,-0.01976 -2.07813,-0.01563 -0.17382,0.001 -0.35191,0.04214 -0.52148,0.0039 -0.47457,-0.106956 -0.92829,-0.290283 -1.39258,-0.435547 -0.1947,-3e-6 -0.38929,-3.33e-4 -0.58399,0 z m -26.08789,6.546875 14.70703,0.859375 c 2.08403,0.121808 3.9821,0.328573 5.69922,0.595703 0.41674,-0.109022 0.78493,-0.168159 1.18946,-0.160156 0.17769,0.0035 0.36665,0.01512 0.57812,0.0332 0.73425,0.08434 1.4725,0.0336 2.20899,0.02539 0.78011,0.0016 1.55972,0.005 2.33984,0.0039 0.77821,-0.0015 1.55773,-1.96e-4 2.33594,0 0.79502,-3.6e-5 1.58974,-1.8e-5 2.38476,0 0.78394,2.5e-5 1.56763,2e-6 2.35157,0 0.79261,0.268835 0.91826,0.298118 1.01953,0.357422 0.0231,-6.52e-4 0.0495,-3.76e-4 0.0644,-0.002 0.18305,-0.01934 0.36538,-0.03001 0.54883,-0.04492 0.33686,0.0616 0.67946,0.102645 1.01172,0.185547 0.11958,0.02984 0.2318,0.08082 0.3457,0.128906 0.25364,0.01015 0.50725,0.01055 0.76172,0.02734 0.0604,0.004 0.12227,0.0029 0.18359,0.002 0.0682,-0.01107 0.15702,-0.02721 0.20313,-0.03125 0.10473,-0.0073 0.20967,-0.0018 0.31445,-0.0059 0.74534,-0.412969 1.43435,-0.310503 2.37891,-0.310547 0.75658,0.001 1.51296,0.0012 2.26953,-0.0059 0.14645,2.2e-5 0.29302,0.0032 0.43945,0.0039 0.4507,-0.07683 0.90433,-0.05437 1.36328,-0.01563 0.0894,-0.02065 0.16721,-0.02874 0.20117,0.01172 0.0711,0.0069 0.1392,0.0062 0.21094,0.01367 0.52972,0.06538 0.69907,0.08887 0.66211,0.361328 2.11161,-0.196709 4.45475,-0.314348 7.07235,-0.314348 h 16.82617 l 0.79687,36.257808 c 0.7898,35.9804 0.7463,36.26175 -5.6875,36.65039 -18.7799,1.13441 -58.1804,1.33377 -61.25,0.31055 -2.5713,-0.85708 -3.53125,-11.20718 -3.53125,-38.05664 z m -177.65036,0.03125 c 0.36968,0.374403 0.66228,0.876164 1.01563,1.277344 0.21244,-0.08335 0.45147,-0.157781 0.69922,-0.228516 -0.13036,-0.244567 -0.26985,-0.484733 -0.35938,-0.646484 -0.10381,-0.187554 -1.5168,-0.576343 0.31055,-0.0039 0.29983,0.15603 0.60765,0.304982 0.91992,0.443359 2.26136,-0.45603 5.70595,-0.576172 10.97852,-0.576172 8.2895,0 16.60747,1.535226 18.48437,3.412109 4.8001,4.799671 4.72206,66.539188 -0.0879,69.511718 h -0.002 c -4.9506,3.05964 -140.1742,3.42054 -145.5918,0.38867 -3.6357,-2.0346 -4.46875,-8.26577 -4.46875,-33.4082 0,-16.999122 0.77716,-32.932222 1.72656,-35.40625 1.3038,-3.397642 5.82628,-4.498047 18.48438,-4.498047 4.61781,0 8.62018,0.292231 11.57226,0.775391 0.0851,-0.0054 0.16118,-0.01953 0.25196,-0.01953 h 3.41992 2.4668 2.27343 2.37891 2.32422 c 0.29018,-4e-4 0.55074,-0.01 0.79492,-0.01172 0.61616,-0.0044 1.12821,0.03895 1.75391,0.378906 0.023,-0.01335 0.0753,-0.01624 0.10742,-0.01172 0.34141,0.04817 0.68291,0.104548 1.01758,0.1875 0.78149,0.193705 0.1838,0.151405 0.49804,0.167969 -0.003,-0.01106 -0.0206,-0.036 -0.01,-0.0332 0.0842,0.02105 0.18471,0.05072 0.27734,0.07422 7.08769,-0.894104 18.38729,-1.507813 30.10156,-1.507813 14.49477,0 22.60508,0.232879 26.94922,1.044922 0.21713,-0.76093 0.69078,-0.766014 1.58203,-0.886719 1.0037,-0.118148 2.01133,-0.0023 3.01758,-0.0039 0.86314,-0.01187 1.72665,-0.01435 2.58985,-0.0098 0.70837,-0.697697 0.80092,0.389097 1.22461,0.492188 0.003,-0.0021 0.005,-0.0038 0.008,-0.0059 0.003,-0.01568 -0.11871,-0.09283 -0.0996,-0.105468 0.0414,-0.02742 0.0985,-0.03992 0.14648,-0.02734 0.0325,0.0085 0.0634,0.02227 0.0957,0.03125 0.83884,-0.602488 1.31298,-0.736034 2.55468,-0.765625 0.66855,0.04249 0.76115,0.21769 0.59375,-0.0293 z m 124.50586,0.550781 c 2.17319,0.01694 3.73342,0.160419 4.86133,0.470703 0.59377,-6.14e-4 1.18771,-0.002 1.78125,0 0.77164,0.004 1.54307,0.0073 2.31445,-0.01953 0.47857,0.0015 0.95221,0.0242 1.42969,0.05859 0.1317,0.0095 0.26319,0.01765 0.39453,0.03125 0.0727,0.0075 0.16251,-0.01767 0.2168,0.03125 0.021,0.01896 -0.012,0.04145 -0.0449,0.0625 0.005,9.12e-4 0.0105,9.53e-4 0.0156,0.002 0.54021,-0.271287 0.61493,-0.342943 1.37696,-0.453125 0.2022,-0.02923 0.409,0.0026 0.61328,0 0.66532,-0.0085 1.33149,-0.03161 1.99414,-0.09375 0.43009,0.01636 1.4076,-0.01254 1.76758,0.361328 2.47677,-0.495668 6.54652,-0.500682 12.96289,-0.166015 l 16.35156,0.851518 0.79492,36.257808 c 0.7897,35.97568 0.7454,36.26259 -5.6875,36.66992 -14.1198,0.89405 -52.42772,0.9603 -59.88672,0.10352 l -7.9043,-0.9082 0.79493,-36.0625 0.79492,-36.060548 16.35156,-0.851562 c 3.6461,-0.190174 6.49043,-0.302431 8.70703,-0.285157 z m -195.02344,0.921875 c 0.0517,0.03082 0.10281,0.06067 0.15626,0.0957 0.0143,3.24e-4 0.0287,-4.3e-4 0.043,0 -0.0457,-0.06332 -0.121,-0.08212 -0.19922,-0.0957 z m 283.13477,0.316406 c 0.0549,0.04059 0.0674,0.0453 0.19922,0.136719 10e-4,-1.7e-5 0.003,1.8e-5 0.004,0 -0.003,-0.0067 -0.11059,-0.09515 -0.17383,-0.128906 -0.009,-0.0047 -0.0199,-0.0044 -0.0293,-0.0078 z m -289.35156,6.542969 c -2.94556,-0.122605 -5.8664,1.132849 -11.30274,3.921879 -19.4324,9.96941 -22.77091,32.865728 -6.75781,46.339838 18.2719,15.37481 45.01816,3.19989 44.88086,-20.42969 -0.0723,-12.44126 -5.99228,-21.024848 -18.70508,-27.121088 -3.51662,-1.68635 -5.82424,-2.615579 -8.11523,-2.710939 z m 282.96484,0.583989 c -1.02581,0.5458 -2.41772,1.05675 -4.21484,1.50781 -4.0259,1.01044 -10.64945,5.79477 -14.71875,10.63086 -6.1487,7.307358 -7.13847,10.737708 -5.85547,20.302728 3.056,22.78443 29.01044,32.51858 46.52734,17.45117 6.5349,-5.62105 7.97852,-9.1694 7.97852,-19.60742 0,-13.81707 -6.16901,-23.379078 -18.00391,-27.904288 -2.01875,-0.77193 -3.49719,-1.5568 -4.49609,-2.32813 -0.0657,-1e-5 -0.13152,2e-5 -0.19727,0 -0.74712,0 -1.49506,8.6e-4 -2.24218,0 -0.80292,-0.003 -1.60537,-0.006 -2.40821,0.01 -0.78975,-0.002 -1.58013,-0.0408 -2.36914,-0.0625 z m -216.25781,0.88086 c -0.0539,-0.004 -0.11136,-9.7e-4 -0.17383,0.0117 -0.48164,0.0682 -0.96511,0.0843 -1.44922,0.0859 -1.52217,1.0665 -3.32597,2.07743 -5.26758,2.88867 -11.5616,4.83077 -15.87109,11.864478 -15.87109,25.906248 0,20.16903 22.60854,33.31717 40.71094,23.67578 9.8012,-5.22014 13.13347,-11.40339 13.23047,-24.54882 0.0685,-9.25423 -1.60062,-13.907188 -6.88867,-19.195318 -3.8391,-3.83908 -8.95781,-6.98044 -11.375,-6.98047 -0.63755,0 -1.23573,-0.16155 -1.77344,-0.45312 -0.53611,-0.0577 -1.05826,-0.19769 -1.56055,-0.39453 -0.26508,-0.10388 -0.51094,-0.28609 -0.27539,-0.11914 0.03,0.16715 0.0293,0.0577 -0.32812,0.0937 -0.42004,0.0424 -1.05461,0.14009 -1.46094,0.0547 -0.33669,-0.0708 -0.65599,-0.20599 -0.98438,-0.3086 -0.6427,-0.23186 -1.36205,-0.0416 -2.03125,0.002 -0.16888,9.7e-4 -0.33698,0.003 -0.50586,0.002 -0.65058,-0.005 -1.18109,-0.25397 -1.76562,-0.50391 -0.0303,-0.013 0.0145,0.069 0.002,0.0996 -0.10573,0.0115 -0.21261,0.024 -0.31836,0.0352 -0.69345,0.0734 -0.35326,0.0701 -1.43554,-0.21289 -0.18235,-0.0477 -0.31689,-0.12526 -0.47852,-0.13867 z m 154.75781,0.83789 c 0.0121,0.0107 0.0249,0.0207 0.0371,0.0312 0.5343,0.46382 0.68776,0.46012 0.67969,0.24218 -0.23867,-0.0918 -0.47364,-0.1856 -0.7168,-0.27343 z m 1.12695,0.43164 c -0.47401,0.088 -1.00828,0.0395 -1.51757,0.043 h -2.28907 -2.36132 -2.38086 -2.28907 c -0.78733,-3e-5 -1.574,-5e-5 -2.36132,0 -0.79363,-3e-5 -1.58723,-5.3e-4 -2.38086,0 -0.39064,3e-4 -0.78126,-0.002 -1.17188,-0.002 -0.94867,0.67691 -2.08687,1.20404 -3.38281,1.5293 -8.1807,2.05323 -16.32227,15.715828 -16.32227,27.388668 0,13.31061 13.28502,25.66658 27.50782,25.58399 32.8762,-0.19104 38.65683,-42.711658 8.94921,-54.542968 z m -226.04687,6.26171 c 4.2531,0 3.97878,1.70267 -2.26172,14.017578 -10.0027,19.73937 -15.74414,21.89406 -15.74414,5.91016 0,-8.38291 10.43196,-19.927738 18.00586,-19.927738 z m 78.12891,0 c 7.4987,3e-5 17.61718,11.849978 17.61718,20.632818 0,4.10807 -1.13458,8.17021 -2.52148,9.02734 -3.1499,1.94676 -6.50136,-2.18356 -14.25586,-17.57422 -5.7673,-11.446628 -5.81174,-12.085938 -0.83984,-12.085938 z m 213.50976,0 c 9.2733,3e-5 17.38867,9.954518 17.38867,21.328128 0,12.45709 -4.10478,12.74044 -10.30078,0.71094 -2.6182,-5.08322 -6.63754,-12.12147 -8.93164,-15.640628 -3.8678,-5.93334 -3.73365,-6.39843 1.84375,-6.39844 z m -76.70312,0.36719 c 3.60518,0.30556 2.14302,4.87258 -4.1875,16.503908 -8.7997,16.1678 -11.7068,17.64749 -14.3086,7.28125 -2.1381,-8.51871 4.52762,-20.022418 13.19532,-22.773438 2.33555,-0.74127 4.09905,-1.11357 5.30078,-1.01172 z m -201.16407,2.47657 c 3.7617,0 10.87891,12.591648 10.87891,19.246088 0,3.63325 -3.13949,9.74882 -6.97852,13.58789 -7.08159,7.08158 -19.66157,9.34297 -22.89257,4.11523 -1.8789,-3.04015 15.55048,-36.949208 18.99218,-36.949208 z m 215.66602,0 c 4.0776,0 8.49609,10.147468 8.49609,19.513668 0,5.80836 -2.37918,10.38432 -7.49218,14.40625 -7.7823,6.1215 -19.41493,7.82872 -22.23633,3.26367 -1.9447,-3.14659 17.49092,-37.183838 21.23242,-37.183588 z m 48.60547,0 c 2.8546,0 19.60937,30.335438 19.60937,35.503898 0,7.76724 -20.15427,3.62301 -26.26171,-5.40039 -5.58011,-8.24432 -0.74956,-30.103758 6.65234,-30.103508 z m -214.66406,1.17968 c 0.39924,-0.0317 0.77126,0.0493 1.10546,0.25586 4.77941,2.953788 20.24358,32.653668 18.48438,35.499998 -5.9865,9.6865 -29.88086,-4.45915 -29.88086,-17.68945 0,-7.04747 6.43163,-17.759808 10.29102,-18.066408 z M 231.723,166.97321 v 45.54297 45.54297 l 178.44727,-0.73243 178.44531,-0.73242 V 212.51618 168.4361 l -178.44531,-0.73242 z m 216.12695,5.54297 31.99219,0.80469 31.99219,0.80273 0.79297,37.68164 0.79297,37.67969 H 410.96324 308.50425 V 211.0943 172.70172 h 31.2832 31.28125 v 22.58399 c 0,21.44798 3.06435,31.00848 6.81055,21.24609 0.946,-2.46504 1.7207,-13.33569 1.7207,-24.15625 v -19.67383 h 31.28125 31.28125 v 24.17383 c 0,14.21881 1.17095,24.17188 2.84375,24.17188 1.6737,0 2.84375,-9.98473 2.84375,-24.26563 z m -210.43945,0.18554 h 31.28125 31.28125 v 38.39258 38.39063 H 268.69175 237.4105 V 211.0943 Z m 281.5332,0 h 31.28125 31.28125 v 38.39258 38.39063 H 550.22495 518.9437 V 211.0943 Z m -241.7207,8.53126 -10.66406,0.42773 c -8.578,0.34274 -9.13435,0.65643 -2.84375,1.60937 7.4264,1.12501 7.82031,1.96324 7.82031,16.63672 0,8.49849 1.27965,15.45313 2.84375,15.45313 1.5799,0 2.84375,-7.58329 2.84375,-17.0625 z m 258.74219,0 c -1.5419,0 -2.80274,7.68003 -2.80274,17.06445 0,18.63885 4.80487,23.57638 6.22657,6.39844 l 0.88281,-10.66407 7.10937,10.62891 c 10.5196,15.72733 14.21875,13.9223 14.21875,-6.93359 0,-18.54552 -4.52691,-20.32062 -6.19531,-2.42969 l -0.91406,9.79687 -7.86133,-11.92968 c -4.3234,-6.56166 -9.12216,-11.93164 -10.66406,-11.93164 z m -48.60742,0.21874 c -1.24046,0.0716 -2.50499,3.83933 -3.08594,11.86915 l -0.875,12.08593 -8.25781,-12.17773 c -4.5422,-6.69731 -9.66276,-11.71499 -11.37696,-11.15039 -1.7141,0.56461 -3.49975,8.28446 -3.96875,17.1543 -0.524,9.90799 0.29852,16.12695 2.13282,16.12695 1.6421,0 2.98632,-4.47888 2.98632,-9.95313 0,-12.58224 3.15965,-12.58836 11.71875,-0.0195 10.1259,14.86888 13.875,12.95349 13.875,-7.08984 0,-10.92026 -1.55357,-16.93773 -3.14843,-16.84571 z m -154.68946,0.53126 c -3.95042,-0.0489 -2.74763,0.36842 2.85352,1.6289 8.0349,1.80818 8.5815,2.80955 9.4043,17.23828 0.5843,10.24676 1.81826,14.37702 3.72656,12.46875 1.5692,-1.56919 2.4564,-9.11027 1.9707,-16.75781 l -0.88281,-13.90625 -11.375,-0.48047 c -2.48938,-0.10555 -4.38046,-0.17534 -5.69727,-0.1914 z m -45.45898,45.67578 c -0.38255,-0.0229 -0.77432,0.0763 -1.16602,0.31836 -1.5097,0.93306 -1.22009,4.56287 0.69141,8.67578 2.3471,5.04992 3.55878,5.81466 4.23828,2.67578 1.1571,-5.34451 -1.08581,-11.50972 -3.76367,-11.66992 z m 281.91406,0.23046 c -0.84537,-0.0474 -1.82963,0.27073 -2.94336,0.9629 -1.7369,1.07947 -11.15614,1.62362 -20.93164,1.21093 -17.3455,-0.73229 -17.77344,-0.57509 -17.77344,6.49219 0,8.17772 3.27945,9.30479 8.56055,2.94141 2.5835,-3.11295 4.57388,-3.46886 7.20508,-1.28516 2.5794,2.14076 4.21456,2.0788 5.63086,-0.21289 1.4218,-2.30046 2.87443,-2.35023 5.04883,-0.17578 2.1744,2.17445 4.52065,1.72381 8.15625,-1.56641 4.7573,-4.30532 5.28791,-4.15754 7.82031,2.17188 l 2.7168,6.79101 0.18164,-7.34765 c 0.15742,-6.41815 -1.13577,-9.84035 -3.67188,-9.98243 z m -134.08984,0.0684 c -0.88225,0.041 -1.40235,0.44902 -1.40235,1.2168 0,1.45176 2.23937,3.50728 4.97657,4.56836 4.7396,1.83736 4.7396,2.10317 0,5.59375 -2.7372,2.01581 -4.97657,4.48376 -4.97657,5.48438 0,3.89051 5.81,1.54558 9.0586,-3.65625 3.1698,-5.07566 3.68808,-5.12765 7.08008,-0.71094 3.2136,4.1846 4.00717,4.24592 6.51367,0.5 4.8048,-7.18071 3.30279,-10.23216 -4.87891,-9.91016 -4.3012,0.16928 -10.05977,-0.77688 -12.79687,-2.10156 -1.4476,-0.70057 -2.69197,-1.02534 -3.57422,-0.98438 z m -177.4336,1.88086 c -11.16535,-0.10752 -11.6582,0.83475 -11.6582,6.83399 0,8.06941 3.30245,9.15983 8.56055,2.82422 2.5835,-3.11295 4.57388,-3.46887 7.20508,-1.28516 2.571,2.13374 4.1987,2.10506 5.5625,-0.10156 1.2883,-2.08456 3.05657,-2.18439 5.32617,-0.30078 1.9006,1.57732 5.0814,1.77725 7.2207,0.45507 7.2626,-4.48857 0.3163,-7.94233 -16.75,-8.32812 -2.0604,-0.0466 -3.87175,-0.0823 -5.4668,-0.0977 z m 165.32227,0.0312 c -1.40158,-0.15087 -3.42864,1.76936 -5.93164,5.77735 -3.0917,4.95053 -3.11218,6.4879 -0.10938,8.34375 5.2525,3.2462 8.21875,0.55018 8.21875,-7.47071 0,-4.27743 -0.77616,-6.49951 -2.17773,-6.65039 z m -32.5918,0.43555 c -18.3738,-0.0308 -26.69533,2.67088 -23.61523,7.66797 1.1819,1.91758 44.17484,1.07523 46.15429,-0.9043 4.22211,-4.22217 -4.14606,-6.73287 -22.53906,-6.76367 z m 58.94141,70.36719 c -29.1958,0 -35.81063,3.09953 -29.95703,14.03711 2.8326,5.29287 5.77503,5.86914 29.95703,5.86914 24.182,0 27.12433,-0.57627 29.95703,-5.86914 5.8536,-10.93758 -0.76133,-14.03711 -29.95703,-14.03711 z m -144.62305,0.35937 c -3.8759,-0.0239 -8.66819,0.0672 -14.63867,0.24024 -24.6633,0.71479 -28.48874,1.4891 -29.33984,5.93554 -0.5383,2.81226 0.56256,6.97122 2.44726,9.24219 2.5482,3.07035 10.23854,4.12891 29.99414,4.12891 22.9999,0 26.94925,-0.7112 29.40235,-5.29492 1.9777,-3.69544 1.7798,-6.73557 -0.6543,-10.06446 -2.20253,-3.0121 -5.58325,-4.11587 -17.21094,-4.1875 z m 66.41992,1.0625 c -26.469,0 -29.89323,0.57192 -30.77343,5.14258 -0.5447,2.82848 -0.28122,6.98746 0.58398,9.24219 1.2158,3.16826 7.65148,4.09961 28.33008,4.09961 28.1628,0 34.6853,-2.67323 32.625,-13.3711 -0.8731,-4.53357 -4.36003,-5.11328 -30.76563,-5.11328 z m 156.44532,0 c -26.4431,0 -29.93149,0.5792 -30.80469,5.11328 -0.5416,2.81226 0.59404,7.0151 2.52344,9.33985 2.7519,3.316 9.38998,4.05244 30.80468,3.41797 l 27.29688,-0.8086 v -8.53125 -8.53125 z m -235.83399,4.26563 c 17.1207,0 22.68595,0.90716 21.81055,3.55469 -1.2824,3.87832 -39.26906,6.71326 -42.78906,3.19336 -5.1727,-5.17276 -0.27499,-6.74805 20.97851,-6.74805 z m 236.03125,0 c 17.1207,0 22.6879,0.90716 21.8125,3.55469 -1.2824,3.87832 -39.27111,6.71326 -42.79101,3.19336 -5.1727,-5.17276 -0.27499,-6.74805 20.97851,-6.74805 z m -85.94531,0.20312 c 12.9794,0.11667 30.25586,1.97083 30.25586,4.0625 0,3.89752 -43.08131,5.3363 -45.44141,1.51758 -1.0127,-1.63855 -0.0336,-3.67366 2.17578,-4.52148 2.0981,-0.80512 7.11004,-1.11163 13.00977,-1.0586 z m -82.68359,0.13282 c 2.93637,-0.0152 6.63431,0.079 11.27539,0.2539 12.2432,0.46139 22.03906,2.09601 22.03906,3.67578 0,1.57977 -9.79586,3.21246 -22.03906,3.67383 -18.5643,0.69963 -22.03907,0.12077 -22.03907,-3.67383 0,-2.84595 1.95455,-3.88403 10.76368,-3.92968 z m 415.80078,10.30664 v 81.41406 c 0,75.82133 -0.34187,81.37979 -4.97657,80.9375 -2.7371,-0.2612 -40.16974,-1.67045 -83.18164,-3.13086 -64.0193,-2.17369 -79.10568,-3.45593 -83.17968,-7.07422 -4.4765,-3.97578 -4.97657,-11.22331 -4.97657,-72.12891 0,-61.59751 0.44917,-67.94576 4.97657,-70.31445 2.7371,-1.43203 28.65063,-3.40739 57.58593,-4.39062 28.9352,-0.98323 66.36599,-2.58165 83.17969,-3.55079 z m -729.425788,0.50976 41.234375,1.84961 c 22.679003,1.0171 61.035133,2.66681 85.236333,3.66602 43.2481,1.78565 44.06497,1.93823 47.67187,8.92578 2.747,5.32162 3.48143,23.07984 2.91993,70.61719 -0.6744,57.104 -1.26066,63.87918 -5.81446,67.20507 -3.6781,2.68628 -25.4754,4.21955 -79.625,5.60157 -41.008431,1.04661 -78.041023,2.57019 -82.294923,3.38476 l -7.734375,1.48047 -0.796875,-81.36523 z m 107.816408,11.45508 c -1.47155,-0.0658 -3.14779,0.28974 -5.05469,1.02148 -3.8488,1.4769 -4.65234,6.38392 -4.65234,28.41602 0,14.64706 0.85366,27.48464 1.89649,28.52734 3.23965,3.23972 11.46807,2.08655 14.9375,-2.09375 2.09495,-2.52432 3.00576,-12.60018 2.48046,-27.42773 -0.70671,-19.94635 -3.23071,-28.15813 -9.60742,-28.44336 z m -72.546877,0.27344 c -2.693277,-0.003 -5.470441,1.06613 -7.685547,3.28125 -2.0924,2.09244 -3.412109,12.32323 -3.412109,26.44726 0,14.12403 1.319709,24.35483 3.412109,26.44727 4.4139,4.414 12.716491,4.38052 15.462891,-0.0645 3.3494,-5.41953 3.988665,-45.02677 0.822265,-50.94336 -1.813106,-3.38777 -5.136824,-5.16421 -8.599609,-5.16797 z m 588.529297,0.0156 c -4.16606,-0.22148 -8.87277,1.62328 -10.86914,5.35352 -1.619,3.02531 -2.94336,13.98726 -2.94336,24.35937 0,10.37211 1.32436,21.33407 2.94336,24.35938 3.3178,6.19929 11.27053,7.21195 16.39453,2.08789 3.5573,-3.55729 4.8599,-43.54148 1.6875,-51.80859 -1.05778,-2.75658 -3.97261,-4.1793 -7.21289,-4.35157 z m -481.27929,0.19922 c -3.31146,-0.0801 -6.62686,1.12855 -7.78711,2.95899 -3.8461,6.06791 -3.01757,49.07034 1.02344,53.11132 1.9368,1.93683 6.09578,3.15214 9.24218,2.70118 5.2958,-0.759 5.72071,-2.93271 5.72071,-29.25782 0,-27.81026 -0.14901,-28.45988 -6.78711,-29.39843 -0.46667,-0.066 -0.93905,-0.1038 -1.41211,-0.11524 z m 443.62695,0 c -3.31141,-0.0801 -6.62695,1.12855 -7.78711,2.95899 -2.7959,4.4109 -3.35419,45.1873 -0.71289,52.07031 1.1632,3.03134 4.38309,4.3506 9.24219,3.78711 l 7.45703,-0.86524 v -28.4375 c 0,-27.81026 -0.14901,-28.45988 -6.78711,-29.39843 -0.46665,-0.066 -0.93905,-0.1038 -1.41211,-0.11524 z m -523.58398,1.07617 -0.82422,26.77735 c -0.5995,19.48349 0.17525,27.42941 2.84375,29.16601 2.0173,1.31271 6.22737,2.05819 9.35547,1.65821 5.2599,-0.67255 5.6875,-2.8647 5.6875,-29.16407 v -28.4375 h -8.53125 z m 622.7832,0 -0.82813,25.36914 c -0.4558,13.95284 -0.1766,27.06956 0.6211,29.14844 0.7977,2.07887 4.6662,3.7793 8.5957,3.7793 9.0712,0 10.62118,-5.79189 9.51758,-35.55664 l -0.84375,-22.74024 h -8.53125 z m -432.58984,4.18164 c -14.87397,-0.0806 -32.4118,1.26922 -34.63868,3.4961 -4.6391,4.63911 -4.304,12.86724 0.63868,15.64062 4.36799,2.45095 48.00446,2.22002 54.54296,-0.28906 5.4243,-2.08146 5.02425,-14.90526 -0.53125,-17.03711 -3.1233,-1.19853 -11.08734,-1.7622 -20.01171,-1.81055 z m 236.03124,0 c -14.87395,-0.0806 -32.41179,1.26922 -34.63867,3.4961 -4.6433,4.64323 -4.30151,12.8694 0.65039,15.64062 4.7572,2.6623 51.04762,2.27948 55.47852,-0.45898 4.6393,-2.86728 3.58384,-14.92533 -1.47656,-16.86719 -3.1233,-1.19853 -11.08907,-1.7622 -20.01368,-1.81055 z m -83.44726,0.084 c -19.1998,0 -26.36727,1.07619 -29.75977,4.46875 -5.8137,5.81367 -5.63782,8.60825 0.83203,13.14258 7.7084,5.40232 50.64671,4.44117 56.34961,-1.26172 3.4051,-3.40512 3.63435,-5.57565 1.08985,-10.33008 -2.9099,-5.43716 -5.66682,-6.01953 -28.51172,-6.01953 z m -88.98633,0.27734 c -18.12171,0.0428 -22.02344,2.37561 -22.02344,9.58789 0,3.80265 1.82544,7.93673 4.05664,9.1875 5.7115,3.20165 52.73856,2.07005 56.16016,-1.35156 1.5548,-1.55474 2.3985,-5.8532 1.875,-9.55273 -0.9044,-6.3921 -2.15255,-6.76908 -25.12305,-7.56641 -5.82313,-0.20214 -10.76337,-0.31457 -14.94531,-0.30469 z m -280.806643,2.56641 c 1.6431,0 2.84375,9.00516 2.84375,21.32812 0,12.32296 -1.20065,21.32813 -2.84375,21.32813 -1.643,0 -2.84375,-9.00517 -2.84375,-21.32813 0,-12.32296 1.20075,-21.32812 2.84375,-21.32812 z m 35.546883,0 c 3.4125,0 4.26562,4.26555 4.26562,21.32812 0,17.06258 -0.85312,21.32813 -4.26562,21.32813 -3.4125,0 -4.26563,-4.26555 -4.26563,-21.32813 0,-17.06257 0.85313,-21.32812 4.26563,-21.32812 z m 35.49218,0 c 4.0651,0 6.22509,11.1854 5.20899,26.98242 -0.5035,7.82879 -2.42786,14.31308 -4.44336,14.97656 -2.6341,0.86718 -3.55469,-4.41409 -3.55469,-20.39453 0,-12.20173 1.21076,-21.56445 2.78906,-21.56445 z m 35.60157,0 c 3.4126,0 4.26562,4.26555 4.26562,21.32812 0,17.06258 -0.85302,21.32813 -4.26562,21.32813 -3.4125,0 -4.26563,-4.26555 -4.26563,-21.32813 0,-17.06257 0.85313,-21.32812 4.26563,-21.32812 z m 445.04882,0 c 1.6431,0 2.84375,9.00516 2.84375,21.32812 0,12.32296 -1.20065,21.32813 -2.84375,21.32813 -1.643,0 -2.84375,-9.00517 -2.84375,-21.32813 0,-12.32296 1.20075,-21.32812 2.84375,-21.32812 z m 33.87305,0 c 2.5801,0 5.35041,29.2821 3.59961,38.05078 -0.5057,2.53277 -2.10529,4.60547 -3.55469,4.60547 -1.4494,0 -2.63672,-9.59761 -2.63672,-21.32813 0,-11.73052 1.1667,-21.32812 2.5918,-21.32812 z m 71.58399,0.61133 c 0.15146,0.005 0.30799,0.0354 0.47265,0.0898 2.2931,0.75823 3.85163,8.41109 4.39063,21.56445 0.6903,16.8464 0.0726,20.39063 -3.55469,20.39063 -3.5718,0 -4.39063,-4.01929 -4.39063,-21.56445 0,-14.98425 0.80988,-20.55992 3.08204,-20.48047 z m -446.70899,5.07617 c 13.2709,0 22.75,1.1849 22.75,2.84375 0,1.65885 -9.4791,2.84375 -22.75,2.84375 -13.2709,0 -22.75,-1.1849 -22.75,-2.84375 0,-1.65885 9.4791,-2.84375 22.75,-2.84375 z m 79.62695,0 c 13.2709,0 22.75,1.1849 22.75,2.84375 0,1.65885 -9.4791,2.84375 -22.75,2.84375 -13.2709,0 -22.75,-1.1849 -22.75,-2.84375 0,-1.65885 9.4791,-2.84375 22.75,-2.84375 z m 78.20313,0 c 15.6142,0 23.8697,1.03193 22.75,2.84375 -0.9667,1.56407 -11.2041,2.84375 -22.75,2.84375 -11.5459,0 -21.7834,-1.27968 -22.75,-2.84375 -1.1198,-1.81182 7.1357,-2.84375 22.75,-2.84375 z m 78.20312,0 c 13.2709,0 22.75,1.1849 22.75,2.84375 0,1.65885 -9.4791,2.84375 -22.75,2.84375 -13.2709,0 -22.75,-1.1849 -22.75,-2.84375 0,-1.65885 9.4791,-2.84375 22.75,-2.84375 z m -78.47265,27.66211 c -18.437,0 -25.44152,1.09383 -28.85742,4.50976 -3.7179,3.71794 -3.86717,5.28635 -0.85157,8.91993 2.827,3.40634 9.69797,4.4082 30.22657,4.4082 23.1663,0 26.93627,-0.68967 29.45117,-5.38867 4.9037,-9.16278 -3.00755,-12.44922 -29.96875,-12.44922 z m -168.23047,0.008 c -5.51333,-0.0228 -10.4592,0.11144 -13.9082,0.44922 -4.277,0.41886 -6.95671,7.71995 -4.84961,13.21094 1.3809,3.59881 6.70496,4.22026 30.44726,3.55468 25.4132,-0.71245 28.89236,-1.4239 29.78516,-6.08593 0.5561,-2.90326 -0.19588,-6.48681 -1.67188,-7.96289 -1.61895,-1.61889 -23.26274,-3.0975 -39.80273,-3.16602 z m 242.81836,0.043 c -11.46553,-0.0176 -22.03287,0.58881 -24.22461,1.94336 -4.1786,2.58254 -4.02846,8.1609 0.33594,12.52539 2.4128,2.41279 11.94311,3.25751 30.53711,2.70312 23.7135,-0.70705 27.15441,-1.45495 28.04101,-6.08593 0.5559,-2.90326 -0.30044,-6.58949 -1.90234,-8.19141 -1.81901,-1.81901 -18.04572,-2.87195 -32.78711,-2.89453 z m -147.68945,0.14062 c -15.26772,0.0768 -31.30858,0.79434 -32.90235,1.7793 -3.5106,2.16971 -4.33836,10.94877 -1.31641,13.9707 1.04271,1.04272 13.68335,1.89649 28.08985,1.89649 18.7394,0 27.11685,-1.1124 29.43555,-3.90625 3.1197,-3.75906 1.62712,-13.0245 -2.13868,-13.2793 -3.91687,-0.26491 -9.10296,-0.40981 -14.71679,-0.45312 -2.10519,-0.0163 -4.27008,-0.014 -6.45117,-0.008 z m -84.62696,6.27149 c 13.3828,0 22.91797,1.18316 22.91797,2.84375 0,1.64105 -8.94906,2.84375 -21.16016,2.84375 -11.6382,0 -21.95126,-1.27968 -22.91796,-2.84375 -1.1161,-1.80599 6.60575,-2.84375 21.16015,-2.84375 z m 79.79492,0 c 14.6664,0 22.44473,1.03711 21.32813,2.84375 -0.9666,1.56407 -10.56423,2.84375 -21.32813,2.84375 -10.7639,0 -20.36152,-1.27968 -21.32812,-2.84375 -1.1166,-1.80664 6.66172,-2.84375 21.32812,-2.84375 z m 78.20313,0 c 12.3229,0 21.32812,1.20068 21.32812,2.84375 0,1.64307 -9.00522,2.84375 -21.32812,2.84375 -12.323,0 -21.32813,-1.20068 -21.32813,-2.84375 0,-1.64307 9.00513,-2.84375 21.32813,-2.84375 z m 79.79297,0 c 13.6065,0 20.85068,1.0437 19.73828,2.84375 -0.9667,1.56407 -10.63986,2.84375 -21.4961,2.84375 -11.26319,0 -19.73828,-1.22104 -19.73828,-2.84375 0,-1.64503 9.0612,-2.84375 21.4961,-2.84375 z m -73.4961,25.42969 c -15.39421,0.14501 -34.23479,2.718 -36.25586,5.91406 -3.6498,5.77173 -3.42789,7.37881 1.72461,12.53125 3.3925,3.39256 10.55997,4.46875 29.75977,4.46875 22.0634,0 25.66346,-0.70037 28.22266,-5.48242 3.9635,-7.40572 0.93068,-14.11078 -7.32032,-16.18164 -3.1542,-0.79166 -7.82545,-1.17971 -13.10351,-1.2461 -0.98964,-0.0125 -2.00107,-0.0112 -3.02735,-0.004 z m -84.5,0.16406 c -11.1541,0 -22.75595,1.32427 -25.78125,2.94336 -6.1993,3.31776 -7.21189,11.27047 -2.08789,16.39453 2.1252,2.12512 12.63924,3.41211 27.86914,3.41211 25.1655,0 31.28125,-2.31558 31.28125,-11.84375 0,-7.73148 -9.10595,-10.90625 -31.28125,-10.90625 z m 156.40625,0 c -11.1541,0 -22.75595,1.32427 -25.78125,2.94336 -6.1993,3.31776 -7.21199,11.27047 -2.08789,16.39453 3.563,3.56301 46.32355,4.88163 54.65235,1.68555 6.3007,-2.41782 5.62964,-14.53098 -1.00196,-18.08008 -3.0253,-1.61909 -14.62705,-2.94336 -25.78125,-2.94336 z m -236.23437,0.29883 c -11.20061,0.11337 -22.46782,1.14612 -26.10352,3.02148 -5.7405,2.96104 -6.5289,11.05124 -1.5625,16.01758 2.1251,2.12512 12.63719,3.41211 27.86719,3.41211 15.2299,0 25.74404,-1.28699 27.86914,-3.41211 5.2044,-5.20434 4.07742,-13.09409 -2.36328,-16.54102 -3.37165,-1.80443 -14.50642,-2.61142 -25.70703,-2.49804 z m -208.808599,2.59765 c -4.671055,-0.13497 -9.917309,1.42549 -11.076172,4.44531 -2.8528,7.43438 -1.945103,46.65637 1.216797,52.56446 3.2326,6.04018 12.622616,7.38052 15.791016,2.2539 2.1839,-3.53358 3.623415,-49.98273 1.728515,-55.76171 -0.74305,-2.26598 -4.027113,-3.39698 -7.660156,-3.50196 z m 584.955079,0.0645 c -3.14966,0.0889 -6.39826,1.1619 -8.53125,3.29492 -4.2441,4.24403 -4.60805,45.91586 -0.46875,53.65039 3.3178,6.19928 11.27053,7.21195 16.39453,2.08789 3.563,-3.56301 4.8836,-46.32354 1.6875,-54.65235 -1.14429,-2.98205 -5.03246,-4.49514 -9.08203,-4.38085 z m -514.19726,0.23046 c -0.47307,0.0114 -0.94741,0.0493 -1.41406,0.11524 -6.5373,0.92434 -6.81753,1.94837 -7.61133,27.76172 -0.4534,14.74132 -0.17421,28.49789 0.62109,30.57031 1.803,4.69861 10.72469,4.90617 15.27539,0.35547 3.9466,-3.94658 4.69826,-49.87367 0.91406,-55.84375 -1.16025,-1.83044 -4.4737,-3.03907 -7.78515,-2.95899 z m -45.16992,1.07422 -0.82227,26.5918 c -0.5301,17.16205 0.35092,28.00208 2.48242,30.57031 1.8163,2.18856 4.908,3.97852 6.8711,3.97852 7.9777,0 10.17061,-8.09718 9.35351,-34.54883 l -0.82226,-26.5918 h -8.53125 z m 71.09375,0 -0.82032,26.5918 c -0.5302,17.16205 0.34907,28.00208 2.48047,30.57031 3.723,4.4859 7.99131,4.98466 13.37891,1.56641 2.6819,-1.70157 3.44375,-9.87877 2.84375,-30.52539 l -0.82031,-28.20313 h -8.53125 z m 443.62695,0 -0.82031,26.5918 c -0.5301,17.16205 0.34897,28.00208 2.48047,30.57031 3.72289,4.4859 7.9913,4.98466 13.3789,1.56641 2.682,-1.70157 3.44385,-9.87877 2.84375,-30.52539 l -0.82031,-28.20313 h -8.53125 z m 108.0625,0 -0.82031,26.5918 c -0.5302,17.16205 0.34905,28.00208 2.48047,30.57031 1.8164,2.18856 4.90809,3.97852 6.87109,3.97852 7.9777,0 10.17061,-8.09718 9.35351,-34.54883 l -0.82226,-26.5918 h -8.53125 z m -439.36133,4.26563 c 13.2709,0 22.75,1.1849 22.75,2.84375 0,1.65885 -9.4791,2.84375 -22.75,2.84375 -13.2709,0 -22.75,-1.1849 -22.75,-2.84375 0,-1.65885 9.4791,-2.84375 22.75,-2.84375 z m 79.62695,0 c 13.2709,0 22.75,1.1849 22.75,2.84375 0,1.65885 -9.4791,2.84375 -22.75,2.84375 -13.2709,0 -22.75,-1.1849 -22.75,-2.84375 0,-1.65885 9.4791,-2.84375 22.75,-2.84375 z m 79.79297,0 c 13.159,0 22.58203,1.18666 22.58203,2.84375 0,1.67435 -10.00914,2.84375 -24.33984,2.84375 -15.5023,0 -23.70143,-1.0325 -22.58203,-2.84375 0.9666,-1.56407 11.91954,-2.84375 24.33984,-2.84375 z m 76.61328,0 c 13.2709,0 22.75,1.1849 22.75,2.84375 0,1.65885 -9.4791,2.84375 -22.75,2.84375 -13.2709,0 -22.75,-1.1849 -22.75,-2.84375 0,-1.65885 9.4791,-2.84375 22.75,-2.84375 z m 140.39258,1.14062 c 2.64822,0.103 3.2236,7.90185 2.27344,27.61328 -0.5194,10.77482 -2.11899,19.58985 -3.55469,19.58985 -3.4219,0 -3.40452,-44.67441 0.0176,-46.78906 0.46454,-0.28711 0.88536,-0.42878 1.26367,-0.41407 z m 71.12891,0.0547 c 3.01933,0.19231 4.60257,8.41393 4.56054,23.91992 -0.0432,16.00082 -2.82912,25.09461 -6.54882,21.375 -2.8887,-2.88873 -2.34508,-43.06 0.60742,-44.88476 0.4894,-0.30247 0.94952,-0.43763 1.38086,-0.41016 z m -106.63281,0.125 c 0.10708,-0.003 0.21684,0.0316 0.33007,0.10156 1.5641,0.96665 2.84375,11.20409 2.84375,22.75 0,11.5459 -1.27965,21.78335 -2.84375,22.75 -1.8118,1.11976 -2.84375,-7.13573 -2.84375,-22.75 0,-14.63838 0.90743,-22.81005 2.51368,-22.85156 z m -515.8125,0.10156 c 1.564,0 3.2231,9.4738 3.6875,21.05274 0.8022,20.00343 -2.80403,32.3429 -6.57813,22.50781 -2.6592,-6.92977 -0.22837,-43.56055 2.89063,-43.56055 z m 70.84179,1.10938 c 1.66327,0.10597 3.37756,8.03727 3.92188,23.04297 0.5374,14.81444 -0.23956,22.76953 -2.22266,22.76953 -4.8605,0 -6.04982,-6.32097 -5.14062,-27.29688 0.54656,-12.60881 1.97381,-18.60912 3.4414,-18.51562 z m -106.388673,0.3125 c 1.6589,0 2.84375,9.4791 2.84375,22.75 0,13.2709 -1.18485,22.75 -2.84375,22.75 -1.6588,0 -2.84375,-9.4791 -2.84375,-22.75 0,-13.2709 1.18495,-22.75 2.84375,-22.75 z m 71.328133,0.61133 c 0.15206,0.003 0.31111,0.0314 0.47656,0.0859 3.8847,1.28017 6.38977,27.40739 3.66797,38.25196 -3.5333,14.07785 -7.22266,5.6824 -7.22266,-16.43555 0,-16.04869 0.7972,-21.9466 3.07813,-21.90234 z m 211.96484,24.89843 c -8.92437,0.0484 -16.88842,0.61202 -20.01172,1.81055 -5.6047,2.15071 -5.91185,14.2621 -0.43945,17.32813 4.4531,2.49511 47.74869,2.31273 54.37109,-0.22852 5.0063,-1.9211 5.41575,-10.71701 0.71875,-15.41406 -2.22687,-2.22688 -19.76472,-3.57667 -34.63867,-3.4961 z m 84.97461,0.084 c -24.6545,0 -27.08397,0.49943 -30.13867,6.20703 -2.7783,5.19135 -2.41985,6.93953 2.18945,10.66601 7.6617,6.19412 50.52513,5.84795 56.83203,-0.45898 3.4638,-3.46376 3.705,-5.62847 1.1543,-10.39453 -2.9309,-5.47655 -5.63931,-6.01953 -30.03711,-6.01953 z m -164.02149,0.42773 c -19.90662,-0.0307 -25.08984,2.67706 -25.08984,11.1543 0,2.85892 1.82363,6.22189 4.05274,7.47266 4.4379,2.4902 48.05247,2.20079 54.73437,-0.36329 2.6038,-0.99918 3.82036,-4.52594 3.25586,-9.43359 l -0.90039,-7.83594 -26.5918,-0.82226 c -3.47261,-0.10728 -6.61713,-0.1675 -9.46094,-0.17188 z m 236.03125,0 c -19.90662,-0.0307 -25.08789,2.67706 -25.08789,11.1543 0,2.85892 1.82364,6.22189 4.05274,7.47266 4.4379,2.4902 48.05052,2.20079 54.73242,-0.36329 2.6038,-0.99918 3.82231,-4.52594 3.25781,-9.43359 l -0.90234,-7.83594 -26.5918,-0.82226 c -3.47261,-0.10728 -6.61713,-0.1675 -9.46094,-0.17188 z m -79.51562,5.46485 c 12.9794,0.11666 30.25586,1.96885 30.25586,4.06054 0,3.89752 -43.08131,5.33629 -45.44141,1.51758 -1.0127,-1.63855 -0.0336,-3.67364 2.17578,-4.52148 2.0981,-0.80512 7.11004,-1.10967 13.00977,-1.05664 z m 91.44727,0.11328 c 13.05064,0.11955 20.41471,2.16546 18.38281,5.45312 -2.6865,4.3468 -47.61288,3.57332 -46.17188,-0.79492 0.7141,-2.16479 7.70853,-3.89562 17.89063,-4.42578 3.57191,-0.18598 6.88669,-0.26001 9.89844,-0.23242 z m -241.77149,0.94531 c 10.60703,0 21.21396,1.23757 22.03906,3.71289 0.8835,2.6503 -4.72376,3.55469 -22.03906,3.55469 -17.3154,0 -22.92246,-0.90439 -22.03906,-3.55469 0.8251,-2.47532 11.43204,-3.71289 22.03906,-3.71289 z m 79.62695,0 c 10.60704,0 21.21397,1.23757 22.03907,3.71289 0.8834,2.6503 -4.72367,3.55469 -22.03907,3.55469 -17.3153,0 -22.92246,-0.90439 -22.03906,-3.55469 0.82515,-2.47532 11.43203,-3.71289 22.03906,-3.71289 z m 78.20313,30.01758 c -29.1958,0 -35.81063,3.09951 -29.95703,14.03711 2.8326,5.29287 5.77503,5.86914 29.95703,5.86914 24.182,0 27.12433,-0.57627 29.95703,-5.86914 5.8536,-10.9376 -0.76133,-14.03711 -29.95703,-14.03711 z m -144.62305,0.35937 c -3.8759,-0.0239 -8.6682,0.0672 -14.63867,0.24024 -24.6633,0.71478 -28.48874,1.48909 -29.33984,5.93554 -0.5383,2.81225 0.56256,6.97121 2.44726,9.24219 2.5482,3.07035 10.23854,4.12891 29.99414,4.12891 22.9999,0 26.94925,-0.7112 29.40235,-5.29492 1.9777,-3.69544 1.7798,-6.73558 -0.6543,-10.06446 -2.20253,-3.01203 -5.58325,-4.11584 -17.21094,-4.1875 z m 66.38086,1.0625 c -29.2679,0 -29.83935,0.12508 -30.78125,6.78711 -0.5279,3.73329 0.75185,7.87323 2.84375,9.19922 2.092,1.32596 14.84369,2.43228 28.33789,2.45508 25.8473,0.0459 32.4247,-2.83743 30.4043,-13.32813 -0.8731,-4.5341 -4.36149,-5.11328 -30.80469,-5.11328 z m 156.48438,0 c -26.4431,0 -29.93149,0.57918 -30.80469,5.11328 -0.5416,2.81225 0.59404,7.01511 2.52344,9.33985 2.7519,3.316 9.38998,4.05244 30.80468,3.41797 l 27.29688,-0.8086 v -8.53125 -8.53125 z m -236.07227,4.26563 c 18.3264,0 22.75,0.82941 22.75,4.26562 0,3.4039 -4.21221,4.26563 -20.85351,4.26563 -11.46981,0 -21.7073,-0.85377 -22.75,-1.89649 -5.0447,-5.04472 -0.0462,-6.63476 20.85351,-6.63476 z m 79.86328,0 c 17.1211,0 22.68655,0.90709 21.81055,3.55469 -0.7709,2.33001 -8.69003,3.84038 -22.98633,4.38476 -18.1152,0.68984 -21.81055,0.0875 -21.81055,-3.55469 0,-3.58949 4.17053,-4.38476 22.98633,-4.38476 z m 70.46094,0.20508 c 12.9794,0.11666 30.25586,1.96885 30.25586,4.06054 0,3.89752 -43.08131,5.33629 -45.44141,1.51758 -1.0127,-1.63855 -0.0336,-3.67364 2.17578,-4.52148 2.0981,-0.80512 7.11004,-1.10967 13.00977,-1.05664 z m 75.99414,0.21679 c 2.93081,-0.029 6.39378,0.0319 10.42578,0.17383 13.1942,0.4645 23.46094,2.07061 23.46094,3.66992 0,3.24066 -41.84677,5.5497 -44.91797,2.47852 -4.36979,-4.36979 -1.66894,-6.19657 11.03125,-6.32227 z m -279.49609,36.59375 c -17.8274,0.0611 -34.33404,9.41463 -42.67774,24.1836 -1.34077,2.3733 -2.74932,4.4176 -4.12695,6.07617 -0.0393,0.368 -0.0842,0.67423 -0.32031,1.04492 -0.12446,0.19541 -0.28383,0.36567 -0.41211,0.55859 -0.0155,0.0233 -0.0431,0.0898 -0.0156,0.084 0.20072,-0.0423 0.091,-0.28164 0.16797,0.0801 -0.0614,0.51614 -0.36868,2.15846 -0.78125,2.50586 -0.15098,0.12712 -0.31703,0.2356 -0.47852,0.34961 -0.0468,0.69372 -0.1326,0.78021 -0.49804,1.36914 -0.009,0.4668 -0.0991,0.89359 -0.37891,1.38476 -0.11374,0.56563 -0.30521,1.04783 -0.27539,1.625 0.0905,0.82353 -0.10873,1.26676 -0.55469,1.7168 2e-5,0.74242 1e-5,1.48414 0,2.22656 -2e-5,0.80649 0,1.61343 0,2.41992 v 0.35157 c 0,0.44399 -0.0517,0.69894 -0.15234,1.01367 -0.0143,0.4666 -0.0923,1.00376 -0.14453,1.42578 0.0298,0.37326 0.0387,0.75606 0.01,0.92578 -0.006,0.0306 -0.0186,0.0595 -0.0254,0.0898 0.005,0.0987 -0.003,0.18682 -0.0176,0.26953 0.9553,1.23208 1.48437,3.23209 1.48437,5.84766 0,9.48119 7.314,23.99741 15.6875,31.13867 5.6717,4.83704 6.76258,8.66409 7.30078,25.59375 0.3481,10.94848 1.21167,21.49922 1.91797,23.44532 3.2552,8.96886 6.375,-1.61944 6.375,-21.63282 0,-21.4147 -0.27294,-22.28969 -9.89844,-31.61914 -10.08886,-9.77849 -15.52249,-21.95121 -14.92773,-29.60742 -0.0906,-0.0785 -0.18383,-0.15379 -0.26563,-0.24219 -0.16333,-0.17651 -0.0463,-0.47835 -0.0527,-0.71875 -0.0228,-0.85278 0.10755,-1.41282 0.45312,-2.00586 -0.24421,-0.51819 -0.18941,-0.70631 -0.19335,-1.46289 -0.38938,-0.75337 -0.26455,-1.71154 -0.21485,-2.53125 0.03,-0.60649 -5e-5,-1.21352 -0.002,-1.82031 -0.0349,-0.60361 0.10996,-0.76799 0.31445,-1.46484 0.22768,-0.77588 0.36834,-1.02555 0.82422,-1.71094 -0.0503,0.0683 -0.0786,0.15978 -0.15039,0.20508 -0.0276,0.0174 -0.0208,-0.0632 -0.0234,-0.0957 -0.0154,-0.19722 -0.0142,-0.39418 -0.0234,-0.59179 -0.0372,-0.8022 -0.047,-0.3663 0.19922,-1.46289 -0.37696,-0.0969 0.28646,-0.3843 0.21485,-0.57618 -0.007,-0.0174 -0.0553,10e-4 -0.0527,-0.0176 0.0391,-0.27434 0.10632,-0.54325 0.17188,-0.8125 0.1596,-0.65549 0.10913,-0.21389 0.14062,-0.54883 0.81487,-0.63175 0.15107,-0.57754 0.30664,-1.04102 0.0888,-0.26456 0.20044,-0.52037 0.31836,-0.77343 -0.25944,-0.20653 -0.0869,-0.066 0.16992,-0.91993 0.16189,-0.53812 0.64677,-1.02711 1.21289,-1.2539 0.5929,-2.76377 3.04735,-6.50639 7.37696,-11.4375 20.2499,-23.06336 55.94193,-19.51565 69.61133,6.91797 9.3467,18.07453 2.52112,48.53686 -12.70118,56.68359 -5.2281,2.79801 -5.83984,5.81304 -5.83984,28.78711 0,16.38363 1.02815,25.02639 2.84375,23.9043 1.564,-0.96665 2.84375,-10.80564 2.84375,-21.86329 0,-18.91714 0.57911,-20.74531 9.78711,-30.9375 13.5572,-15.00621 17.89286,-30.5336 13.31836,-47.68945 -6.1756,-23.16068 -24.4829,-37.46692 -47.8457,-37.38672 z m -48.92774,35.08985 c -0.0381,0.0268 -0.0754,0.0549 -0.11328,0.082 0.0314,-0.018 0.068,-0.0299 0.0937,-0.0547 0.008,-0.008 0.0119,-0.0192 0.0195,-0.0273 z m -0.60351,2.56445 c -0.0682,0.11833 -0.11309,0.22873 -0.20508,0.35742 0.0509,0.145 0.1955,-0.35694 0.20508,-0.35742 z m 178.48242,8.3125 c -40.49425,0.0815 -58.42094,0.9106 -60.50781,2.64258 -2.9546,2.45206 -3.89063,12.91291 -3.89063,43.54492 0,42.71425 1.25699,47.14453 13.36719,47.14453 6.4876,0 6.53906,0.29717 6.53906,36.76563 0,42.80807 1.38364,45.70312 21.83594,45.70312 4.12132,0 6.94022,0.1417 8.77539,0.52539 1.05335,6.5e-4 2.10689,1.8e-4 3.16015,0 0.0483,-0.0615 -1.29241,-0.0341 1.10157,-0.22265 1.40657,-0.1108 1.64046,-0.0496 2.51758,0.22265 0.78063,2e-5 1.56115,0 2.34179,0 h 0.23828 c 0.55441,-0.0493 1.11442,-0.0622 1.68164,-0.01 0.78482,-0.0108 1.59604,-0.0414 2.4043,-0.0371 0.0983,-0.006 0.1953,-0.002 0.29102,0.008 0.57525,0.0103 1.1476,0.0363 1.70312,0.11523 0.0316,0.004 0.0379,0.049 0.0527,0.0801 0.10414,-0.0552 0.20689,-0.11404 0.31836,-0.15234 0.61244,-0.21047 1.23563,-0.30989 1.86328,-0.33008 1.34484,-0.0433 2.70722,0.28077 4.02148,0.65039 2.85668,-0.62726 7.51899,-0.84961 14.82617,-0.84961 5.99868,0 10.10758,0.11271 12.83399,0.45117 0.10369,-0.006 0.20759,-0.007 0.31054,-0.0215 0.089,-0.0129 -0.32007,-0.0132 -0.25781,-0.0781 0.16404,-0.17088 1.6016,-0.49931 1.63672,-0.5039 0.52131,-0.0682 0.93087,-0.082 1.33399,-0.0703 0.40303,0.0117 0.7998,0.048 1.29687,0.082 1.45683,0.15846 2.92352,0.0613 4.38477,0.0469 1.56406,0.004 3.12732,0.01 4.6914,0.008 1.61102,-0.003 3.22297,-1.6e-4 4.83399,0 1.34013,-0.0805 1.90246,0.15224 3.33398,0.70703 0.18417,0.0714 0.33578,0.21665 0.51953,0.28907 0.11202,0.0442 -0.17672,-0.16629 -0.27734,-0.23242 0.9936,-0.13175 2.30998,-0.33355 3.48633,-0.1875 2.61793,-0.35259 6.28776,-0.49024 11.33593,-0.49024 5.28577,0 9.04801,0.15433 11.68555,0.54492 0.33018,0.007 0.66014,0.006 0.99023,0.0195 1.17913,0.005 3.97977,-0.4015 4.82227,-0.12304 0.51659,0.17073 0.99441,0.4332 1.46875,0.70508 0.46418,9e-4 1.10525,0.002 1.55078,-0.008 0.18391,-0.004 0.36694,-0.013 0.55078,-0.0195 1.39683,-0.0421 2.79491,-0.005 4.17774,0.21094 0.63759,0.0873 -0.0418,0.04 1.14062,-0.32031 1.45856,-0.44447 2.52813,-0.56415 3.99219,-0.48242 1.44558,0.004 2.89057,-10e-4 4.33594,-0.0156 1.07258,-0.32485 2.35456,-0.51172 3.86328,-0.51172 4.013,0 9.77157,-1.32621 12.79687,-2.94531 5.0183,-2.68576 5.5,-6.2855 5.5,-41.07031 v -38.12696 l 12.08594,-0.875 12.08594,-0.87304 v -45.50196 -45.5 l -104.88477,-0.74609 c -18.7622,-0.13351 -34.76754,-0.18926 -48.26562,-0.16211 z m -171.77735,6.05859 c -0.029,0.2452 0.0103,0.57697 0.008,0.42188 -0.007,-0.1726 -0.007,-0.29545 -0.008,-0.42188 z m 115.91016,1.95899 h 32.70508 32.70312 v 38.39062 38.39063 H 344.05308 311.348 v -38.39063 z m 73.93945,0 h 65.40625 c 63.5106,0 65.40625,0.16483 65.40625,5.6875 0,5.88909 -4.12103,7.67947 -6.99023,3.03711 -0.9535,-1.5428 -4.83928,-0.98848 -9.30078,1.32617 -4.3391,2.25115 -8.36179,2.84885 -9.27149,1.37695 -0.8837,-1.42981 -6.05012,-1.8655 -11.48242,-0.96875 -16.7226,2.76064 -21.28231,2.48968 -20.54101,-1.21679 0.391,-1.95509 -0.49305,-3.55469 -1.96485,-3.55469 -4.0369,0 -6.33539,5.05593 -3.18359,7.0039 1.5214,0.94018 2.12048,3.39537 1.33008,5.45508 -1.0637,2.7721 1.36833,3.53014 9.36523,2.91992 5.9418,-0.45341 11.44456,-1.05057 12.22656,-1.32812 0.782,-0.27758 2.49665,-0.31483 3.81055,-0.082 14.4249,2.54886 18.94242,2.01092 18.98242,-2.25586 0.0284,-2.99832 0.772,-3.4779 2.13282,-1.37695 1.14909,1.77413 4.64914,3.70877 7.77734,4.29882 5.1555,0.97251 5.76415,3.6622 6.50195,28.76563 l 0.8125,27.69531 h -65.50976 -65.50782 v -38.39258 z m 25.59375,5.6875 c -0.50221,0 -1.00514,0.75095 -1.69922,2.25195 -1.30369,2.81982 -2.62524,2.90466 -5.6875,0.36328 -4.2475,-3.52519 -5.24801,-0.67367 -2.38281,6.79297 0.9193,2.39564 4.87199,4.0321 9.24219,3.82422 8.0442,-0.38271 11.78542,-3.54665 11.85742,-10.02539 0.0337,-3.02713 -0.85131,-3.15955 -3.94531,-0.5918 -3.0622,2.54138 -4.3837,2.45654 -5.6875,-0.36328 -0.694,-1.501 -1.19505,-2.25195 -1.69727,-2.25195 z m 28.4375,0 c -3.1281,0 -5.6875,1.27968 -5.6875,2.84375 0,1.56407 -1.84385,2.84375 -4.09765,2.84375 -5.0607,0 -8.2298,4.69033 -5.8125,8.60156 0.9901,1.60202 5.22475,2.34571 9.41015,1.6543 4.1854,-0.69143 8.56919,-1.3617 9.74219,-1.49024 1.1731,-0.12862 2.13281,-3.43358 2.13281,-7.34375 0,-5.21355 -1.5166,-7.10937 -5.6875,-7.10937 z m -286.61914,8.53125 c -9.1766,0 -23.35156,9.51836 -23.35156,15.67969 0,2.11559 -0.4714,3.59381 -1.58594,4.51562 0.0213,0.0794 0.0466,0.15339 0.0645,0.23828 0.0828,0.39318 0.31201,2.39061 -0.11328,3.02735 0.27633,0.70912 0.5386,1.42201 0.74218,2.15429 0.20088,0.72254 -0.10059,1.50756 0.01,2.25 0.31746,2.2264 0.91682,4.11139 0.70703,6.2168 1.7022,2.43989 3.01953,5.19681 3.01953,6.41211 0,1.34064 4.15899,4.21332 9.24219,6.38476 5.0832,2.17133 12.44146,3.26379 16.35156,2.42579 10.181,-2.18196 19.90625,-13.95074 19.90625,-24.08789 0,-11.51226 -13.58259,-25.2168 -24.99219,-25.2168 z m -1.30078,5.6875 c 17.7896,0 25.6409,24.97525 10.9375,34.79297 -11.0066,7.34933 -27.30078,-2.02784 -27.30078,-15.71094 0,-7.83502 9.64438,-19.08203 16.36328,-19.08203 z m 193.92774,2.63476 c -0.49353,-0.084 -0.95113,0.3613 -1.60938,1.01954 -0.9665,0.96649 0.5647,8.21675 3.4043,16.11328 2.8395,7.89656 6.51015,14.35365 8.15625,14.34765 3.8143,-0.0136 13.90921,-24.27364 12.09961,-29.07812 -0.7487,-1.98802 -3.59076,1.50348 -6.31446,7.75976 l -4.95117,11.375 -4.51562,-9.95312 c -3.92707,-8.65648 -5.18377,-11.39923 -6.26953,-11.58399 z m -19.19727,0.61328 c -3.55505,-0.12503 -6.25,0.7925 -6.25,2.25196 0,1.66795 2.5594,3.03125 5.6875,3.03125 6.8804,0 7.50843,4.38199 0.98633,6.88476 -4.2851,1.64432 -4.24741,2.13774 0.43359,5.56055 5.797,4.23888 3.48196,10.91619 -2.93164,8.45508 -2.296,-0.88108 -4.17578,-0.10091 -4.17578,1.73437 0,1.96257 3.22091,2.96672 7.82031,2.4375 7.3686,-0.84784 7.82227,-1.72169 7.82227,-15.11914 0,-13.39745 -0.45367,-14.26934 -7.82227,-15.11718 -0.53765,-0.0619 -1.06245,-0.10127 -1.57031,-0.11915 z m 128.10547,7.99024 c -2.98652,-0.003 -8.73003,3.70751 -14.91602,10.08984 -8.6287,8.90252 -11.23358,9.95313 -24.67578,9.95313 -13.6554,0 -15.1926,0.64956 -16.8125,7.10351 -0.9804,3.90667 -1.04418,9.0254 -0.14258,11.375 2.6379,6.87417 7.05265,4.92221 8.02735,-3.54882 0.8319,-7.22964 1.97434,-7.88452 15.11914,-8.69141 11.9081,-0.73099 15.95171,-2.55876 24.88281,-11.24219 5.8652,-5.70263 10.66406,-11.38812 10.66406,-12.63476 0,-1.63437 -0.78897,-2.40296 -2.14648,-2.4043 z m -326.59766,4.61719 c -0.10514,0.005 -0.24864,0.0217 -0.43554,0.0508 -0.0677,0.0105 -0.13699,0.0148 -0.20508,0.0234 0.053,0.1426 0.11124,0.28372 0.16601,0.42578 0.60378,-0.30282 0.96008,-0.52424 0.47461,-0.5 z m 338.86524,12.58203 c -5.0238,0 -8.23577,4.67977 -5.85547,8.53125 3.0926,5.00388 9.95312,3.04372 9.95312,-2.84375 0,-3.12813 -1.84385,-5.6875 -4.09765,-5.6875 z m -17.76367,37.36133 c 31.0476,0.0232 35.79564,1.0633 38.21289,4.36718 3.6912,5.04535 5.13322,56.06865 1.82812,64.68164 -1.102,2.87191 -5.19451,4.49805 -11.32031,4.49805 -5.16195,0 -7.79645,-0.54671 -9.42969,-2.58594 -0.0979,0.0624 -0.19517,0.12564 -0.30078,0.17188 -1.41153,0.61797 -1.34316,0.50773 -2.85742,0.7539 -1.51658,-0.31199 -2.9725,-0.36727 -4.50391,-0.30078 -1.0719,0.0312 -2.14451,0.0302 -3.21679,0.0234 -3.59067,1.55353 -9.61786,1.7956 -19.50782,1.36719 -4.2681,-0.18489 -7.56846,-0.36647 -10.21289,-0.60742 0.002,0.14889 -6.5e-4,0.29876 0.004,0.44726 0.002,0.0939 -0.1893,0.003 -0.2832,0.004 -0.0456,3.5e-4 -0.0911,-3.4e-4 -0.13672,0 -0.0909,0.34828 -0.71588,0.0183 -1.09375,0.002 -0.5274,0.002 -1.0547,0.003 -1.58203,-0.002 -0.45059,3.3e-4 -0.90099,0 -1.35157,0 -0.54628,-2.1e-4 -1.09239,-0.002 -1.63867,-0.002 -1.61789,0.10036 -3.23737,0.40647 -4.8125,-0.22071 -0.48295,-0.18758 -0.22985,-0.086 -0.44726,-0.16406 -0.1146,-0.004 -0.2293,10e-4 -0.34376,-0.01 -0.32501,-0.0258 -0.6402,-0.12383 -0.96093,-0.18359 -0.87817,0.14958 -1.73373,0.39222 -2.65625,0.21094 -0.24667,-0.0916 -0.48181,-0.16612 -0.71875,-0.24414 -0.0944,0.003 -0.18881,0.007 -0.28321,0.01 -0.31648,0.008 -0.51007,-0.004 -0.73242,-0.01 -0.42934,0.0427 -0.86419,0.0445 -1.30078,0.0351 -2.37407,1.2199 -7.82296,1.18122 -20.25,0.71289 -2.20208,-0.083 -4.13185,-0.16496 -5.91992,-0.25 0.15777,1.63197 -1.40462,3.31187 -4.63477,3.17969 -0.46701,-0.0191 -0.93513,-0.0317 -1.40234,-0.0449 -1.19794,-0.005 -3.97182,0.42712 -4.84961,0.12305 -0.5001,-0.17324 -0.96562,-0.42577 -1.42383,-0.69532 -0.0299,-2e-5 -0.0599,4e-5 -0.0898,0 -0.27173,0.11562 -0.65185,0.18546 -1.17383,0.19336 -1.28673,0.0195 -1.66822,0.10056 -2.2832,-0.17578 -0.0323,0.001 -0.0685,0.003 -0.10156,0.004 -0.32099,0.0517 -0.74608,0.23467 -0.84376,0.004 -0.95729,-0.0128 -1.30045,-0.30871 -1.23242,-1.29493 -0.26525,-0.0692 -0.53224,-0.13325 -0.79297,-0.21679 -0.1634,-0.0523 -0.56955,-0.0563 -0.47461,-0.19922 0.023,-0.0346 0.0839,-0.0503 0.14063,-0.0684 -1.26512,0.061 -2.10105,0.0889 -3.30273,-0.71289 -0.92883,0.0451 -1.85453,0.16376 -2.78516,0.17773 -0.32918,-0.0111 -1.14881,-0.0438 -1.9668,-0.14648 -2.04751,0.54767 -4.94607,0.71484 -9.23047,0.71484 -7.7325,0 -13.10317,-1.43203 -13.98437,-3.72851 -0.787,-2.05072 -1.06795,-18.36666 -0.62305,-36.25782 l 0.81055,-32.52929 75.35937,-0.76172 c 17.08145,-0.17237 30.35198,-0.27727 40.70118,-0.26953 z m -88.66407,17.0039 c -3.96482,-0.10368 -7.95962,1.75709 -12.79492,5.56055 -13.1593,10.35112 -6.50939,33.91992 9.57031,33.91992 3.38183,0 5.00098,0.29889 5.34766,2.17383 0.98265,-0.37691 2.02139,-0.61502 2.85937,-0.66211 0.0846,-0.005 0.16929,2e-4 0.25391,0.002 0.0314,-0.0631 0.34374,-0.12593 0.47656,-0.16992 0.37983,-0.12577 0.76196,-0.25816 1.15625,-0.32617 0.19065,-0.0329 0.38416,-0.0378 0.57813,-0.043 0.0728,-0.0356 0.14725,-0.0682 0.22656,-0.0801 0.1452,-0.0218 0.58457,0.0129 0.43945,0.0352 -0.21968,0.0338 -0.44318,0.039 -0.66601,0.0449 -0.0571,0.0279 -0.11364,0.0565 -0.17188,0.0801 0.22921,0.11713 0.46926,0.22067 0.71485,0.31836 1.12428,-1.69722 2.65639,-3.39523 4.58789,-5.05664 10.2216,-8.79246 10.2341,-20.79782 0.0332,-29.57227 -4.71165,-4.05277 -8.6465,-6.12092 -12.61133,-6.22461 z m 100.70899,0.98828 c -3.03441,-0.0697 -6.13816,0.56304 -9.09961,1.98243 -16.6585,7.98418 -15.42304,32.05875 1.82226,35.50781 2.30074,0.46014 4.20342,1.16782 5.625,2.05273 h 0.0996 c 0.0637,-0.0204 0.1064,-0.0449 0.16993,-0.0605 0.4449,-0.10958 0.89418,-0.21623 1.35156,-0.24414 0.24594,-0.015 0.49101,-0.0144 0.73437,-0.01 1.66948,0.0508 3.28023,0.58743 4.87305,1.05469 0.0684,-0.0122 0.13674,-0.0111 0.20508,-0.0195 0.77502,-1.2282 1.97268,-2.35399 3.65625,-3.53321 9.8218,-6.87943 12.71879,-14.63873 8.90429,-23.84765 -3.28878,-7.93977 -10.5872,-12.70463 -18.34179,-12.88282 z m -51.27539,0.0586 c -7.24834,-0.0411 -14.45293,3.59715 -18.16407,11.74219 -4.2999,9.4373 -4.15131,10.51304 2.67969,19.19726 10.8294,13.76737 36.76367,6.88559 36.76367,-9.75586 0,-13.20235 -10.68557,-21.1236 -21.27929,-21.18359 z m -51.29883,7.15234 c 4.1092,0 7.17187,1.63123 7.17187,3.82227 0,2.10282 -2.9838,7.29501 -6.6289,11.53711 -5.9349,6.90685 -7.0186,7.24076 -10.3711,3.20117 -5.6742,-6.83689 0.53383,-18.56055 9.82813,-18.56055 z m 51.81836,0 c 8.0228,0 8.07519,1.11092 0.62109,13.17188 -7.8355,12.67829 -13.98633,12.55408 -13.98633,-0.28125 0,-7.89084 5.18424,-12.89063 13.36524,-12.89063 z m 50.27148,0 c 8.4361,0 13.87045,6.24814 12.65235,14.54883 -1.4498,9.87989 -6.84777,9.38038 -13.41407,-1.24414 -7.5705,-12.24928 -7.50838,-13.30469 0.76172,-13.30469 z m -87.375,9.33203 c 0.62694,-0.002 0.85933,0.87115 0.89258,2.55078 0.052,2.62542 -1.91525,6.78438 -4.37305,9.24219 -8.7195,8.71946 -9.77545,2.85357 -1.31445,-7.30273 2.53029,-3.03721 3.98886,-4.48706 4.79492,-4.49024 z m 51.30078,0.15039 c 1.42756,-0.15545 0.76396,2.47342 -2.06836,7.76563 -1.6191,3.02531 -4.1785,5.50195 -5.6875,5.50195 -4.4625,0 -3.15004,-4.43866 2.94336,-9.95312 2.34713,-2.12414 3.95597,-3.22118 4.8125,-3.31446 z m 23.13477,1.99219 c 0.96769,-0.0936 2.73434,0.92575 5.15234,3.34375 2.4904,2.49039 3.98055,6.17345 3.31055,8.18359 -0.8053,2.41575 -2.82217,1.36378 -5.95117,-3.10351 -3.5155,-5.01903 -4.12454,-8.26787 -2.51172,-8.42383 z M 463.223,798.97542 c -0.021,0.006 -0.0414,0.014 -0.0625,0.0195 l 0.0215,0.75782 z"
   inkscape:connector-curvature="0" /><path
   id="path1071"
   style="fill:#000000;stroke-width:2.8437624"
   d="m 711.34905,466.96796 0.8281,-25.36914 c 0.4558,-13.95284 0.1766,-27.06956 -0.6211,-29.14844 -0.7977,-2.07887 -4.6662,-3.78125 -8.5957,-3.78125 -9.0712,0 -10.6212,5.79191 -9.5176,35.55664 l 0.8438,22.74219 h 8.5312 z m -7.3477,-7.7207 v -0.002 c -0.1515,-0.005 -0.3079,-0.0335 -0.4726,-0.0879 -2.2931,-0.75823 -3.8516,-8.4111 -4.3906,-21.56446 -0.6903,-16.8464 -0.073,-20.39062 3.5546,-20.39062 3.5718,0 4.3907,4.01929 4.3907,21.56445 0,14.98425 -0.8099,20.55992 -3.0821,20.48047 z m 7.3477,-69.0625 0.8203,-26.5918 c 0.5302,-17.16205 -0.3491,-28.00208 -2.4805,-30.57031 -1.8164,-2.18856 -4.9081,-3.97852 -6.8711,-3.97852 -7.9777,0 -10.1706,8.09718 -9.3535,34.54883 l 0.8223,26.5918 h 8.5312 z m -8.1934,-5.46094 c -3.0193,-0.19231 -4.6026,-8.41393 -4.5605,-23.91992 0.043,-16.00082 2.8291,-25.09461 6.5488,-21.375 2.8887,2.88873 2.3451,43.06001 -0.6074,44.88477 -0.4894,0.30247 -0.9496,0.43762 -1.3809,0.41015 z"
   inkscape:connector-curvature="0" /><text
   xml:space="preserve"
   style="font-style:normal;font-weight:normal;font-size:40px;line-height:1.25;font-family:sans-serif;letter-spacing:0px;word-spacing:0px;fill:#000000;fill-opacity:1;stroke:none"
   x="533.84509"
   y="538.9248"
   id="text1131"><tspan
     sodipodi:role="line"
     id="tspan1129"
     x="533.84509"
     y="538.9248"
     style="font-size:48px">Micro</tspan><tspan
     sodipodi:role="line"
     x="533.84509"
     y="598.9248"
     style="font-size:48px"
     id="tspan5053">Smart</tspan><tspan
     sodipodi:role="line"
     x="533.84509"
     y="658.9248"
     id="tspan1133"
     style="font-size:48px">Switch</tspan><tspan
     sodipodi:role="line"
     x="533.84509"
     y="718.9248"
     id="tspan1135"
     style="font-size:48px">G2</tspan></text>

<path
   style="opacity:1;fill:#858585;fill-opacity:1;stroke:#dadada;stroke-width:3.5999999;stroke-linecap:round;stroke-linejoin:round;stroke-miterlimit:4;stroke-dasharray:none;stroke-dashoffset:0;stroke-opacity:1"
   id="path2691"
   sodipodi:type="arc"
   sodipodi:cx="237.49222"
   sodipodi:cy="568.77356"
   sodipodi:rx="37.91824"
   sodipodi:ry="37.91824"
   sodipodi:start="1.5834465"
   sodipodi:end="1.5802735"
   sodipodi:open="true"
   d="m 237.01256,606.68877 a 37.91824,37.91824 0 0 1 -37.43592,-38.36479 37.91824,37.91824 0 0 1 38.33508,-37.46634 37.91824,37.91824 0 0 1 37.49674,38.30535 37.91824,37.91824 0 0 1 -38.27559,37.52711" /></svg>