<?xml version="1.0" encoding="UTF-8" standalone="no"?>
<svg
   xmlns:dc="http://purl.org/dc/elements/1.1/"
   xmlns:cc="http://creativecommons.org/ns#"
   xmlns:rdf="http://www.w3.org/1999/02/22-rdf-syntax-ns#"
   xmlns:svg="http://www.w3.org/2000/svg"
   xmlns="http://www.w3.org/2000/svg"
   xml:space="preserve"
   style="enable-background:new 0 0 816.24 816.24;"
   viewBox="0 0 816.24 816.24"
   y="0px"
   x="0px"
   id="Layer_1"
   version="1.1"><metadata
   id="metadata13"><rdf:RDF><cc:Work
       rdf:about=""><dc:format>image/svg+xml</dc:format><dc:type
         rdf:resource="http://purl.org/dc/dcmitype/StillImage" /><dc:title></dc:title></cc:Work></rdf:RDF></metadata><defs
   id="defs11"><marker
     style="overflow:visible;"
     id="marker3135"
     refX="0.0"
     refY="0.0"
     orient="auto"><path
       transform="scale(1.1) rotate(180) translate(1,0)"
       d="M 8.7185878,4.0337352 L -2.2072895,0.016013256 L 8.7185884,-4.0017078 C 6.9730900,-1.6296469 6.9831476,1.6157441 8.7185878,4.0337352 z "
       style="fill-rule:evenodd;stroke-width:0.625;stroke-linejoin:round;stroke:#000000;stroke-opacity:1;fill:#000000;fill-opacity:1"
       id="path3133" /></marker><marker
     style="overflow:visible;"
     id="Arrow2Lend"
     refX="0.0"
     refY="0.0"
     orient="auto"><path
       transform="scale(1.1) rotate(180) translate(1,0)"
       d="M 8.7185878,4.0337352 L -2.2072895,0.016013256 L 8.7185884,-4.0017078 C 6.9730900,-1.6296469 6.9831476,1.6157441 8.7185878,4.0337352 z "
       style="fill-rule:evenodd;stroke-width:0.625;stroke-linejoin:round;stroke:#000000;stroke-opacity:1;fill:#000000;fill-opacity:1"
       id="path1184" /></marker><marker
     style="overflow:visible;"
     id="Arrow1Lend"
     refX="0.0"
     refY="0.0"
     orient="auto"><path
       transform="scale(0.8) rotate(180) translate(12.5,0)"
       style="fill-rule:evenodd;stroke:#000000;stroke-width:1pt;stroke-opacity:1;fill:#000000;fill-opacity:1"
       d="M 0.0,0.0 L 5.0,-5.0 L -12.5,0.0 L 5.0,5.0 L 0.0,0.0 z "
       id="path1166" /></marker><marker
     style="overflow:visible"
     id="Arrow2Lstart"
     refX="0.0"
     refY="0.0"
     orient="auto"><path
       transform="scale(1.1) translate(1,0)"
       d="M 8.7185878,4.0337352 L -2.2072895,0.016013256 L 8.7185884,-4.0017078 C 6.9730900,-1.6296469 6.9831476,1.6157441 8.7185878,4.0337352 z "
       style="fill-rule:evenodd;stroke-width:0.625;stroke-linejoin:round;stroke:#000000;stroke-opacity:1;fill:#000000;fill-opacity:1"
       id="path1181" /></marker></defs>
<style
   id="style2"
   type="text/css">
	.st0{fill:#1A1A18;}
</style>



<path
   transform="rotate(18.965989)"
   d="m 570.12462,332.24159 a 76.203224,76.203224 0 0 1 76.10077,-6.68352 76.203224,76.203224 0 0 1 43.65765,62.68976 76.203224,76.203224 0 0 1 -32.66163,69.0595"
   id="path883"
   style="opacity:1;fill:none;fill-opacity:1;stroke:#000000;stroke-width:5;stroke-linecap:round;stroke-linejoin:round;stroke-miterlimit:4;stroke-dasharray:none;stroke-dashoffset:0;stroke-opacity:1;paint-order:markers stroke fill" /><path
   transform="rotate(-162.02145)"
   style="opacity:1;fill:none;fill-opacity:1;stroke:#000000;stroke-width:5;stroke-linecap:round;stroke-linejoin:round;stroke-miterlimit:4;stroke-dasharray:none;stroke-dashoffset:0;stroke-opacity:1;paint-order:markers stroke fill"
   id="path887"
   d="m -475.57717,-593.78463 a 76.203224,76.203224 0 0 1 76.10077,-6.68351 76.203224,76.203224 0 0 1 43.65766,62.68975 76.203224,76.203224 0 0 1 -32.66163,69.0595" /><path
   id="path889"
   d="M 431.19272,499.49914 224.8365,565.74102 v 0"
   style="fill:none;stroke:#000000;stroke-width:5;stroke-linecap:butt;stroke-linejoin:miter;stroke-miterlimit:4;stroke-dasharray:none;stroke-opacity:1" /><path
   id="path891"
   d="m 472.91396,646.08232 -25.47954,8.18764 -25.47954,8.18764 -32.88819,11.00998 m -91.68717,29.57543 -28.30188,8.54044"
   style="fill:none;stroke:#000000;stroke-width:5;stroke-linecap:butt;stroke-linejoin:miter;stroke-miterlimit:4;stroke-dasharray:none;stroke-opacity:1" /><path
   style="opacity:1;fill:none;fill-opacity:1;stroke:#000000;stroke-width:5;stroke-linecap:round;stroke-linejoin:round;stroke-miterlimit:4;stroke-dasharray:none;stroke-dashoffset:0;stroke-opacity:1;paint-order:markers stroke fill"
   id="path893"
   d="M 360.12437,64.194325 A 76.203224,76.203224 0 0 1 414.10923,51.016457"
   transform="rotate(18.965989)" /><path
   d="m -170.72751,-311.83887 a 76.203224,76.203224 0 0 1 20.08124,60.21416 76.203224,76.203224 0 0 1 -32.48436,54.53226"
   id="path895"
   style="opacity:1;fill:none;fill-opacity:1;stroke:#000000;stroke-width:5;stroke-linecap:round;stroke-linejoin:round;stroke-miterlimit:4;stroke-dasharray:none;stroke-dashoffset:0;stroke-opacity:1;paint-order:markers stroke fill"
   transform="rotate(-162.02145)" /><path
   style="fill:none;stroke:#000000;stroke-width:5;stroke-linecap:butt;stroke-linejoin:miter;stroke-miterlimit:4;stroke-dasharray:none;stroke-opacity:1"
   d="m 319.71023,177.7522 -206.35622,66.24188 v 0"
   id="path897" /><path
   id="path903"
   d="M 375.04723,182.83519 515.07735,529.77232"
   style="fill:none;stroke:#000000;stroke-width:5;stroke-linecap:butt;stroke-linejoin:miter;stroke-miterlimit:4;stroke-dasharray:none;stroke-opacity:1" /><path
   id="path905"
   d="M 174.98518,668.06706 66.13878,349.30935"
   style="fill:none;stroke:#000000;stroke-width:5;stroke-linecap:butt;stroke-linejoin:miter;stroke-opacity:1;stroke-miterlimit:4;stroke-dasharray:none" /><path
   id="path907"
   d="M 94.548447,265.88339 203.66894,560.09638"
   style="fill:none;stroke:#000000;stroke-width:2;stroke-linecap:butt;stroke-linejoin:miter;stroke-miterlimit:4;stroke-dasharray:none;stroke-opacity:1" /><path
   style="fill:none;stroke:#000000;stroke-width:2;stroke-linecap:butt;stroke-linejoin:miter;stroke-miterlimit:4;stroke-dasharray:none;stroke-opacity:1"
   d="m 335.85865,186.85783 109.1205,294.21299"
   id="path909" /><path
   style="opacity:1;fill:none;fill-opacity:1;stroke:#000000;stroke-width:15.0906229;stroke-linecap:round;stroke-linejoin:round;stroke-miterlimit:4;stroke-dasharray:none;stroke-dashoffset:0;stroke-opacity:1;paint-order:markers stroke fill"
   id="path911"
   d="m 438.05339,520.3601 a 49.986473,47.402275 0 0 1 45.71638,-39.00428 49.986473,47.402275 0 0 1 51.01564,32.56312 49.986473,47.402275 0 0 1 -20.89757,54.84605 49.986473,47.402275 0 0 1 -61.18219,-5.88085"
   transform="matrix(0.99407068,0.10873586,-0.09707687,0.99527689,0,0)" /><path
   transform="matrix(0.99666851,0.08155911,-0.1292842,0.99160758,0,0)"
   d="m 478.31415,534.87335 a 30.094309,21.484976 0 0 1 6.15127,-9.68535"
   id="path913"
   style="opacity:1;fill:none;fill-opacity:1;stroke:#000000;stroke-width:4.71581697;stroke-linecap:round;stroke-linejoin:round;stroke-miterlimit:4;stroke-dasharray:none;stroke-dashoffset:0;stroke-opacity:1;paint-order:markers stroke fill" /><path
   d="m -437.83083,-559.97967 a 40.988007,41.494377 0 0 1 38.4368,30.19776 40.988007,41.494377 0 0 1 -17.13948,46.09725 40.988007,41.494377 0 0 1 -48.56594,-2.95504"
   id="path915"
   style="opacity:1;fill:none;fill-opacity:1;stroke:#000000;stroke-width:2.80354404;stroke-linecap:round;stroke-linejoin:round;stroke-miterlimit:4;stroke-dasharray:none;stroke-dashoffset:0;stroke-opacity:1;paint-order:markers stroke fill"
   transform="matrix(-0.94977951,-0.31291992,0.30444781,-0.95252902,0,0)" /><path
   id="path921"
   d="m 281.92089,601.56952 c 0,0 80.70985,66.88977 129.55524,81.82017 42.4419,12.97307 88.99712,10.04398 133.08113,3.99382 48.48827,-6.65459 97.48706,-19.31071 141.72276,-43.93199 21.78956,-12.12792 58.7631,-49.92272 58.7631,-49.92272"
   style="fill:none;stroke:#000000;stroke-width:5;stroke-linecap:butt;stroke-linejoin:miter;stroke-miterlimit:4;stroke-dasharray:none;stroke-opacity:1" /><path
   style="fill:none;stroke:#000000;stroke-width:5;stroke-linecap:butt;stroke-linejoin:miter;stroke-miterlimit:4;stroke-dasharray:none;stroke-opacity:1"
   d="m 238.90652,664.36753 c 0,0 95.08451,67.00901 150.11192,81.83623 47.11699,12.69575 97.81199,10.06712 146.33795,3.99238 53.08349,-6.64526 106.74235,-18.9262 155.84042,-43.91612 23.59814,-12.01097 64.61676,-49.90466 64.61676,-49.90466"
   id="path923" /><path
   transform="rotate(-162.02145)"
   style="opacity:1;fill:none;fill-opacity:1;stroke:#000000;stroke-width:5;stroke-linecap:round;stroke-linejoin:round;stroke-miterlimit:4;stroke-dasharray:none;stroke-dashoffset:0;stroke-opacity:1;paint-order:markers stroke fill"
   id="path925"
   d="m -432.30552,-558.18677 a 38.06142,38.06142 0 0 1 25.2964,47.13918 38.06142,38.06142 0 0 1 -46.82718,25.86939" /><path
   id="path931"
   d="m 113.35401,243.99412 c 0,0 -19.546329,-50.44955 -19.511152,-76.8927 0.0491,-36.90762 12.344432,-73.604617 27.517832,-107.248977 6.54376,-14.509648 26.81224,-39.512781 26.81224,-39.512781 v 1.41117"
   style="fill:none;stroke:#000000;stroke-width:5;stroke-linecap:butt;stroke-linejoin:miter;stroke-opacity:1;stroke-miterlimit:4;stroke-dasharray:none" /><path
   style="fill:none;stroke:#000000;stroke-width:5;stroke-linecap:butt;stroke-linejoin:miter;stroke-miterlimit:4;stroke-dasharray:none;stroke-opacity:1"
   d="m 167.96611,225.88383 c 0,0 -20.61712,-47.84149 -20.53513,-73.17542 0.10753,-33.22819 12.64894,-66.1036 27.55468,-95.801124 6.63099,-13.211279 26.84815,-35.29515 26.84815,-35.29515 v 1.26054"
   id="path933" /></svg>