<?xml version="1.0" encoding="UTF-8" standalone="no"?>
<!-- Generator: Adobe Illustrator 20.0.0, SVG Export Plug-In . SVG Version: 6.00 Build 0)  -->

<svg
   xmlns:dc="http://purl.org/dc/elements/1.1/"
   xmlns:cc="http://creativecommons.org/ns#"
   xmlns:rdf="http://www.w3.org/1999/02/22-rdf-syntax-ns#"
   xmlns:svg="http://www.w3.org/2000/svg"
   xmlns="http://www.w3.org/2000/svg"
   xmlns:sodipodi="http://sodipodi.sourceforge.net/DTD/sodipodi-0.dtd"
   xmlns:inkscape="http://www.inkscape.org/namespaces/inkscape"
   version="1.1"
   id="Layer_1"
   x="0px"
   y="0px"
   viewBox="0 0 1998.69 2059.52"
   style="enable-background:new 0 0 1998.69 2059.52;"
   xml:space="preserve"
   sodipodi:docname="icon.svg"
   inkscape:version="0.92.4 (5da689c313, 2019-01-14)"><metadata
   id="metadata17"><rdf:RDF><cc:Work
       rdf:about=""><dc:format>image/svg+xml</dc:format><dc:type
         rdf:resource="http://purl.org/dc/dcmitype/StillImage" /></cc:Work></rdf:RDF></metadata><defs
   id="defs15" /><sodipodi:namedview
   pagecolor="#ffffff"
   bordercolor="#666666"
   borderopacity="1"
   objecttolerance="10"
   gridtolerance="10"
   guidetolerance="10"
   inkscape:pageopacity="0"
   inkscape:pageshadow="2"
   inkscape:window-width="1680"
   inkscape:window-height="987"
   id="namedview13"
   showgrid="false"
   inkscape:zoom="0.32410892"
   inkscape:cx="1165.9573"
   inkscape:cy="907.67849"
   inkscape:window-x="1672"
   inkscape:window-y="-8"
   inkscape:window-maximized="1"
   inkscape:current-layer="g10" />
<style
   type="text/css"
   id="style2">
	.st0{fill:#1A1A18;}
</style>
<g
   id="g10">
	<path
   class="st0"
   d="m 1876.4904,2060.0712 c 12.15,-244.59 104.8214,-649.7274 90.5514,-782.4474 -7.18,-66.76 -13.2352,-125.59 -33.5852,-170.13 -17.04,-37.29 -33.3819,-61.476 -54.9619,-73.206 v 20.86 h -8.85 c 18.05,10.48 28.1465,29.3806 42.9665,63.9806 15.496,50.0748 25.3206,99.2454 31.9506,160.8854 14.17,131.82 -78.5414,536.1474 -90.6914,780.0574 h -5.68 c 12.15,-243.75 104.8714,-647.8774 90.7314,-779.4574 -14.57,-135.52 -42.6371,-208.506 -76.9771,-223.016 l -2.61,-1.1 0.57,-1.35 h -449.13 v -380.05005 -11.34 -228.16 l 68.17,-68.17 h 331.38 l 68.17,68.17 v 188.02 h 11.51 v 150.7 h -11.51 v 253.58005 c 23.92,11.66 45.4787,46.7535 63.9787,87.2635 16.7432,48.9467 22.9684,94.5025 30.2084,161.8525 14.29,132.96 -78.3614,538.2974 -90.5114,783.0474 h -5.68 z M 1465.9547,1043.8078 h 357.35 V 675.09775 h -52.24 v 29.59 c 0,41.62 -33.86,75.47 -75.47,75.47 h -111.57 c -41.62,0 -75.47,-33.86 -75.47,-75.47 v -29.59 h -42.6 z m 293.77,-339.12005 v -29.59 -11.34 -87.05 c 0,-35.36 -28.77,-64.13 -64.13,-64.13 h -111.57 c -35.36,0 -64.13,28.77 -64.13,64.13 v 87.05 11.34 29.59 c 0,35.36 28.77,64.13 64.13,64.13 h 111.57 c 35.36,0.01 64.13,-28.76 64.13,-64.13 z m -337.62,339.12005 h 38.18 V 675.09775 h -38.18 z m 15.2,-618.71005 -15.2,15.2 v 223.46 h 15.2 z m 408.98,-5.66 -40.66,-40.66 h -322 l -40.66,40.66 v 244.32 h 65.58 v -87.05 c 0,-41.62 33.86,-75.47 75.47,-75.47 h 111.58 c 41.62,0 75.47,33.86 75.47,75.47 v 87.05 h 75.22 z m 20.87,20.86 -15.2,-15.2 v 238.65 h 15.2 z m 0,234.8 h -38.18 v 368.71005 h 35.7 l 2.48,-5.88 z m 16.61,92.99 v -138.23 h -5.27 v 33.9 11.34 93 h 5.27 z"
   id="path4"
   inkscape:connector-curvature="0"
   style="fill:#1a1a18"
   sodipodi:nodetypes="cccccccccccccccccccccccccccccccccccsssscccsccssssccsscsccccccccccccccccsssscccccccccccccccccccccc" />
	<path
   class="st0"
   d="m 11.54,2059.52 c 10.18,-10.13 19.7,-20.98 27.57,-30.5 21.43,-25.93 42.48,-56.42 58.05,-84.06 l 7.4,4.06 c -15.86,28.19 -37.22,59.17 -58.91,85.41 -7.61,9.21 -15.05,17.59 -22.24,25.09 h 7.79 c 6.88,-7.37 13.26,-14.75 18.82,-21.48 21.91,-26.51 43.48,-57.81 59.5,-86.29 l 0.08,0.04 c -5.76,17.99 -16.7,50.48 -29.75,80.74 -4.35,10.08 -8.56,19.07 -12.64,26.99 h 6.36 c 3.73,-7.4 7.57,-15.65 11.49,-24.75 12.89,-29.89 23.73,-61.91 29.61,-80.2 l 7.05,3.87 0.53,0.29 c -6.75,20.93 -17.13,50.99 -29.38,79.39 -3.33,7.72 -6.6,14.85 -9.82,21.4 h 6.3 c 2.87,-5.94 5.77,-12.33 8.72,-19.16 12.14,-28.14 22.43,-57.86 29.23,-78.86 l 3.86,2.12 1.37,-2.48 c 21.6,-39.19 37.35,-106.85 48.15,-206.87 9.6,-88.9 14.51,-194.59 19.25,-296.8 0.3,-6.43 0.6,-12.88 0.9,-19.32 l 5.49,31.79 c 0.48,2.8 2.04,5.26 4.38,6.91 1.83,1.29 3.96,1.96 6.15,1.96 0.61,0 1.22,-0.05 1.83,-0.16 l 3.49,-0.6 3.83,22.2 15.19,-2.62 15.98,92.56 -6.72,1.16 4.14,23.99 6.72,-1.16 19.37,112.16 28.63,-4.94 c 2.56,14.2 5.32,28.89 7.99,43.16 15.5,82.65 26.28,140.12 28.3,294.97 h 5.66 c -2.12,-155.97 -13.38,-216.02 -28.39,-296.03 -2.67,-14.22 -5.42,-28.89 -7.98,-43.06 l 22.32,-3.85 c 2.95,16.49 5.45,29.83 7.88,42.77 15.83,84.37 26.82,142.97 28.86,300.17 h 5.65 c -2.13,-158.3 -13.62,-219.57 -28.94,-301.23 -2.42,-12.9 -4.92,-26.22 -7.86,-42.68 l 25.84,-4.46 -19.37,-112.16 6.72,-1.16 -4.14,-23.99 -6.72,1.16 -15.98,-92.56 14.6,-2.52 -3.83,-22.2 4.07,-0.7 c 5.81,-1 9.72,-6.54 8.71,-12.35 l -14.12,-81.79 c -1,-5.81 -6.54,-9.72 -12.35,-8.71 l -12.54,2.17 -24.81,-143.71 -1.47,0.25 -13.8,-12.01 -11.05,-63.98 12.85,-2.22 -4.19,-24.28 -36.65,6.33 c -1.01,-7.99 -1.68,-17.77 -1.99,-29.15 -0.15,-5.4 -0.22,-11.22 -0.21,-17.43 2.27,-11.88 4.73,-23.1 7.37,-33.57 6.7,0.99 13.49,1.62 19.73,1.62 10.1,0 18.78,-1.65 23.34,-6.12 l 1.47,0.35 0.73,-2.63 h 46.7 1.63 c 6.18,10.27 28.89,14.8 48.95,16.31 -0.5,17.4 -0.58,32.94 -0.21,46.25 0.31,11.41 0.94,21.44 1.88,29.92 l -31.35,5.41 4.19,24.28 12.85,-2.22 11.05,63.98 -8.97,15.94 -1.47,0.25 24.81,143.71 -12.54,2.17 c -2.81,0.48 -5.26,2.04 -6.91,4.38 -1.65,2.34 -2.29,5.17 -1.81,7.98 l 14.12,81.79 c 0.48,2.8 2.04,5.26 4.38,6.91 1.83,1.29 3.96,1.96 6.15,1.96 0.61,0 1.22,-0.05 1.83,-0.16 l 3.49,-0.6 3.83,22.2 15.19,-2.62 15.98,92.56 -6.72,1.16 4.14,23.99 6.72,-1.16 19.37,112.16 27.9,-4.82 c 2.53,14.01 5.24,28.5 7.88,42.56 l 0.09,0.48 c 15.5,82.65 26.28,140.12 28.3,294.97 h 5.66 C 530,1903.57 518.74,1843.52 503.74,1763.53 l -0.09,-0.48 c -2.63,-14.03 -5.34,-28.5 -7.87,-42.47 l 22.32,-3.85 c 2.91,16.26 5.38,29.44 7.78,42.22 l 0.08,0.43 c 15.83,84.37 26.82,142.97 28.86,300.17 h 5.65 c -2.13,-158.3 -13.62,-219.57 -28.94,-301.22 l -0.08,-0.43 c -2.39,-12.75 -4.86,-25.92 -7.76,-42.14 l 26.56,-4.59 -19.37,-112.16 6.72,-1.16 -4.14,-23.99 -6.72,1.16 -15.98,-92.56 14.61,-2.52 -3.83,-22.2 4.07,-0.7 c 5.81,-1 9.72,-6.54 8.71,-12.35 L 520.2,1362.9 c -1,-5.81 -6.54,-9.72 -12.35,-8.71 l -12.54,2.17 -24.81,-143.71 -1.46,0.25 -13.8,-12.01 -11.05,-63.98 12.85,-2.22 -4.19,-24.28 -35.34,6.1 c -0.74,-7.12 -1.24,-15.49 -1.5,-24.95 -0.35,-12.93 -0.27,-28.23 0.25,-45.54 9.99,-0.82 19.18,-2.34 26.8,-4.47 10.65,-2.97 17.46,-6.91 20.37,-11.74 h 51.56 l 0.62,2.28 1.39,-0.23 c 4.49,4.63 13.29,6.34 23.56,6.34 14.35,0 31.57,-3.33 43.97,-6.69 16.21,-4.39 31.04,-10.32 41.75,-16.68 13.04,-7.75 18.65,-15.36 16.68,-22.63 -0.34,-1.27 -0.92,-2.46 -1.71,-3.54 9.04,-6.6 17.65,-13.95 25.73,-22.02 40.74,-40.74 63.17,-94.69 63.17,-151.9 V 285.51 C 730.15,210.12 700.42,139.13 646.44,85.63 592.92,32.59 521.53,2.4 445.4,0.63 409.27,-0.21 376.92,-0.21 343.6,0.63 267.45,2.55 196.06,32.78 142.58,85.74 88.59,139.2 58.86,210.15 58.86,285.51 v 529.21 c 0,57.22 22.44,111.17 63.17,151.9 10.72,10.72 22.36,20.14 34.72,28.25 -0.18,11.44 17.95,21.94 36.6,29.28 -7.5,29.6 -13.48,64.43 -18.38,102.86 l -3.93,0.68 2.24,12.99 c -11.02,92.98 -16.23,205.08 -21.32,314.7 -9.25,199.13 -18.81,405.04 -61.55,482.58 l -1.37,2.49 3.2,1.76 c -15.41,27.35 -36.22,57.51 -57.44,83.18 -10.87,13.15 -21.46,24.64 -31.38,34.12 h 8.12 z m 350.53,-352.99 -20.28,3.5 v 0 l -28.28,4.88 -28.22,4.87 -18.4,-106.58 76.78,-13.26 z m -14.87,-126.14 2.21,12.82 -47.17,8.15 -41.92,7.24 v 0 l -1.13,0.2 -2.21,-12.82 z m -7.68,-4.43 -76.78,13.26 -15.98,-92.56 76.78,-13.26 z m -11.36,-99.11 -0.05,-0.29 -87.96,15.19 0.05,0.29 -9.6,1.66 -2.87,-16.61 5.33,-0.92 8.66,-1.48 v -0.02 l 57.14,-9.87 20,-3.45 0.01,0.05 15.46,-2.64 2.85,16.53 z m -110.26,-73.64 5.57,-0.95 11.71,67.79 -2.7,0.47 -2.87,0.49 z m 60.35,58.58 -11.7,-67.79 5.57,-0.95 11.71,67.79 z m 33.54,-74.72 5.57,-0.95 11.69,67.72 -5.57,0.96 z m 2.84,-25.15 v 0 l 12.54,-2.17 c 0.29,-0.05 0.57,-0.07 0.86,-0.07 2.4,0 4.52,1.73 4.94,4.17 l 14.12,81.79 c 0.47,2.73 -1.36,5.33 -4.09,5.8 l -8.37,1.44 -12.66,-73.3 -16.75,2.86 12.66,73.33 -16.48,2.84 -11.87,2.05 -12.8,-74.15 -16.75,2.86 12.81,74.19 -32.04,5.53 -12.67,-73.37 -16.75,2.86 12.67,73.4 -2.83,0.49 v 0 l -3.49,0.6 c -1.32,0.23 -2.64,-0.08 -3.74,-0.85 -1.1,-0.78 -1.83,-1.93 -2.06,-3.24 l -14.12,-81.79 c -0.23,-1.31 0.08,-2.64 0.85,-3.74 0.78,-1.1 1.93,-1.83 3.24,-2.06 l 62.66,-10.82 z m -110.79,13.38 c 0.74,-14.71 1.51,-29.35 2.31,-43.88 l 7.29,42.22 z m 104.24,-18 -44.53,7.69 -44.53,7.69 -9.88,-57.21 89.05,-15.38 z m -10.84,-62.8 -89.05,15.38 -1.45,-8.38 89.05,-15.38 z m -2.41,-13.97 -89.05,15.38 -1.47,-8.49 89.05,-15.38 z m -2.43,-14.07 -89.05,15.38 -1.51,-8.73 89.05,-15.38 z m -2.47,-14.32 -89.05,15.38 -5.69,-32.97 89.05,-15.38 z m -9.75,-38.02 -82.88,14.31 6.54,-11.62 66.28,-11.44 z m -12.49,-14.09 -63.35,10.94 -10.74,-62.18 63.35,-10.94 z m -34.84,-159.27 c 0.05,-1.74 0.11,-3.51 0.18,-5.3 0.36,0.07 0.72,0.13 1.08,0.2 -0.43,1.68 -0.84,3.38 -1.26,5.1 z m 310.82,665.77 -21.01,3.63 v 0 l -15.42,2.66 -40.35,6.97 -18.4,-106.58 76.78,-13.26 z m -14.86,-126.14 2.21,12.82 -90.22,15.58 -2.21,-12.82 z m -7.68,-4.43 -76.78,13.26 -15.98,-92.56 76.78,-13.26 z m -11.36,-99.11 -0.05,-0.29 -87.96,15.19 0.05,0.29 -9.6,1.66 -2.87,-16.61 5.27,-0.91 8.72,-1.49 v -0.02 l 44.88,-7.75 32.25,-5.57 0.01,0.05 15.46,-2.64 2.85,16.53 z m -110.27,-73.64 5.57,-0.95 11.71,67.79 -2.71,0.47 -2.87,0.49 z m 60.36,58.58 -11.71,-67.79 5.57,-0.95 11.71,67.79 z m 33.53,-74.72 5.57,-0.95 11.69,67.72 -5.57,0.96 z m 2.85,-25.15 12.54,-2.17 c 0.29,-0.05 0.57,-0.07 0.86,-0.07 2.4,0 4.52,1.73 4.94,4.17 l 14.12,81.79 c 0.47,2.73 -1.37,5.33 -4.09,5.8 l -4.07,0.7 -4.29,0.74 -12.66,-73.3 -16.75,2.86 12.66,73.33 -28.35,4.89 -12.8,-74.15 -16.75,2.86 12.81,74.19 -32.04,5.53 -12.67,-73.37 -16.75,2.86 12.67,73.4 -2.83,0.49 v 0 l -3.49,0.6 c -1.31,0.23 -2.64,-0.08 -3.74,-0.85 -1.1,-0.77 -1.83,-1.93 -2.06,-3.24 l -14.12,-81.79 c -0.23,-1.31 0.08,-2.64 0.85,-3.74 0.77,-1.1 1.93,-1.83 3.24,-2.06 l 92.48,-15.97 z m -6.55,-4.62 -39.25,6.78 -49.8,8.6 -9.88,-57.21 89.05,-15.38 z m -10.85,-62.8 -89.05,15.38 -1.45,-8.38 89.05,-15.38 z m -2.41,-13.97 -89.05,15.38 -1.47,-8.49 89.05,-15.38 z m -2.43,-14.07 -89.05,15.38 -1.51,-8.73 89.05,-15.38 z m -2.47,-14.32 -89.05,15.38 -5.69,-32.97 89.05,-15.38 z m -9.74,-38.02 -82.88,14.31 6.54,-11.62 66.28,-11.44 z m -12.49,-14.09 -63.35,10.94 -10.74,-62.18 63.35,-10.94 z m -31.19,-77.89 v 0 l 30.07,-5.19 2.26,13.11 -89.05,15.38 -2.26,-13.11 25.47,-4.4 v 0 z m -7.82,-30.44 c 0.27,9.76 0.79,18.41 1.57,25.76 l -22.34,3.86 c -0.89,-8.24 -1.5,-18.02 -1.8,-29.11 -0.36,-13.16 -0.29,-28.53 0.21,-45.75 3.68,0.18 7.21,0.27 10.43,0.27 4.13,0 8.2,-0.11 12.17,-0.33 -0.51,17.19 -0.59,32.4 -0.24,45.3 z m -11.93,-56.31 c -35.66,0 -53.9,-8.14 -55.33,-11.47 v -2.44 h 109.91 l 0.04,1.49 0.63,1.12 c -1.91,3.41 -20.14,11.3 -55.25,11.3 z m 183.15,-14.83 c -34.42,9.32 -54.16,6.23 -56.4,3.4 l -0.64,-2.36 106.09,-28.74 0.42,1.42 0.9,0.91 c -0.95,3.81 -16.47,16.19 -50.37,25.37 z m -420.08,-41.61 -1.26,4.64 C 149.46,976.32 139.35,967.98 129.99,958.61 91.39,920.01 70.14,868.91 70.14,814.72 V 285.51 C 70.14,213.2 98.68,145.12 150.5,93.8 201.92,42.88 270.58,13.82 343.83,11.96 c 33.13,-0.84 65.31,-0.84 101.25,0 73.21,1.71 141.87,30.73 193.32,81.72 51.82,51.35 80.36,119.48 80.36,191.83 v 529.21 c 0,54.19 -21.26,105.29 -59.85,143.89 -8.02,8.02 -16.6,15.28 -25.62,21.77 l -122.71,33.24 1.31,4.84 H 464.3 v -8.33 H 331.69 v 8.33 h -43.6 l 1.31,-4.84 z m 6.65,16.24 0.96,-0.97 0.37,-1.35 106.09,28.74 -0.64,2.36 c -2.24,2.84 -21.98,5.93 -56.4,-3.4 -33.91,-9.19 -49.44,-21.58 -50.38,-25.38 z m 58.81,92.54 c 0.32,11.68 1.01,21.74 2.06,29.96 l -22.33,3.86 c -1.17,-9.09 -1.94,-20.27 -2.3,-33.31 -0.45,-16.64 -0.22,-36.77 0.69,-59.86 3.67,1.2 7.22,2.25 10.47,3.14 3.62,0.98 7.66,1.96 11.91,2.85 -0.73,20.56 -0.9,38.49 -0.5,53.36 z m -28.26,-61.55 c 0.26,0.1 0.53,0.19 0.79,0.28 -0.97,23.93 -1.23,44.76 -0.76,61.93 0.36,13.34 1.16,24.79 2.38,34.12 l -20.29,3.5 c 4.79,-37.25 10.62,-71.04 17.88,-99.83 z m 6.53,101.37 30.17,-5.21 v 0 l 31.25,-5.4 2.26,13.11 -89.05,15.38 -2.26,-13.11 z m -65.94,616.88 c 8.93,-85.94 13.71,-189.05 18.35,-288.78 4.9,-105.55 9.92,-213.4 20.11,-304.11 l 10.35,-1.79 11.05,63.98 -8.97,15.94 -1.47,0.25 13.26,76.81 c -1.37,23.02 -2.62,46.42 -3.8,69.96 -1.62,0.78 -3.03,1.96 -4.1,3.47 -1.65,2.34 -2.29,5.17 -1.81,7.97 l 4.18,24.18 c -0.71,14.97 -1.41,29.94 -2.11,44.88 -9.39,202.16 -19.1,411.14 -65.36,498.7 l -17.14,-9.41 -15.1,-8.29 c 19.06,-36.22 32.61,-97.96 42.56,-193.76 z"
   id="path6"
   inkscape:connector-curvature="0"
   style="fill:#1a1a18" />
	<path
   class="st0"
   d="m 839.50101,892.48072 h 448.95009 l -0.46,1.1 2.61,1.1 c 17.79,7.51 34.4,31.42 48.05,69.14 14.25,39.38998 24.99,92.01998 31.92,156.44998 14.14,131.58 333.6775,697.0315 321.5275,940.7815 h 5.68 c 12.15,-243.91 -307.3975,-809.5615 -321.5675,-941.3815 -6.97,-64.87 -17.81,-117.96 -32.22,-157.76998 -12.94,-35.75 -28.15,-59.05 -45.29,-69.41 h 8.53 v -21.05 c 20.79,11.47 39.07,36.8 54.4,75.45 17.07,43.05 29.54,100.36998 37.07,170.38998 14.27,132.72 333.8575,699.1815 321.7075,943.7715 h 5.68 c 12.15,-244.75 -307.4575,-811.4115 -321.7475,-944.3715 -14.94,-139.02998 -49.35,-228.03998 -97.1,-251.62998 v -256.4 l 10.34,-0.04 -0.8,-104.69 -9.54,0.03 v -2.86 h -109.12 v 40.93 c 0,35.36 -28.77,64.13 -64.13,64.13 H 1022.421 c -35.35999,0 -64.12999,-28.77 -64.12999,-64.13 v -40.93 h -84.33 l 78.02,-32 -37.33,-91.03 c -6.47,-15.78 -6.38,-33.2 0.25,-49.05 6.63,-15.85 18.97,-28.15 34.75,-34.62 l 103.23009,-42.33 c 15.78,-6.47 33.2,-6.38 49.05,0.25 15.85,6.63 28.15,18.97 34.62,34.75 l 37.33,91.03 93.09,-38.18 37.54,91.55 18.25,-7.48 -56.97,-138.91 -10.38,4.26 -71.45,-174.22 -88.93,-37.200004 -306.61009,125.740004 -37.2,88.93 88.3,215.3 v 384.6 z m 467.72009,-382.85 3.91,-0.01 0.71,93.36 -4.62,0.02 z m -49.52,2.81 h 38.18 v 362.4 l -2.66,6.31 h -35.52 z m -363.02009,0 h 52.24 v 29.59 c 0,41.62 33.86,75.47 75.46999,75.47 h 111.5701 c 41.62,0 75.47,-33.86 75.47,-75.47 v -29.59 h 42.6 v 368.71 H 894.68101 Z m -5.67,0 v 368.71 h -38.18 v -368.71 z m 373.68009,-219.97 52.67,128.42 -7.76,3.18 -35.39,-86.3 2.62,-1.08 -17.27,-42.12 z m -87.45,-168.71 84.79,206.75 -14.06,5.77 -90.5501,-220.81 z m -378.19009,88.6 297.92009,-122.180004 53.0499,22.190004 92.7001,226.05 -60.68,24.88 -33.0301,-80.54 c -15.7899,-38.5 -59.9599,-56.98 -98.4599,-41.19 l -103.23009,42.33 c -18.58,7.62 -33.11,22.09 -40.91,40.73 -7.8,18.65 -7.9,39.15 -0.28,57.73 l 33.03,80.54 -69.6,28.54 -92.71,-226.05 z m -33.58,80.26 8.29,-19.82 90.55,220.81 -14.06,5.77 z"
   id="path8"
   inkscape:connector-curvature="0"
   style="fill:#1a1a18"
   sodipodi:nodetypes="cccccccccccccccccccccccccssssccccsccscccccccccccccccccccccccccccssssccccccccccccccccccccccccccccccccccccccccc" />
<path
   sodipodi:nodetypes="cccccccccccccccccccccccccssssccccsccscccccccccccccccccccccccccccssssccccccccccccccccccccccccccccccccccccccccc"
   style="fill:#1a1a18"
   inkscape:connector-curvature="0"
   id="path826"
   d="m 833.60628,1740.9482 h 448.95002 l -0.46,1.1 2.61,1.1 c 17.7901,7.51 34.4001,31.42 48.0501,69.14 14.25,39.39 24.99,92.02 31.92,156.45 14.14,131.58 3.3038,22.2705 9.6661,91.6964 h 5.68 c -4.4339,-48.7596 4.4639,39.5235 -9.7061,-92.2964 -6.97,-64.87 -17.81,-117.96 -32.22,-157.77 -12.94,-35.75 -28.15,-59.05 -45.29,-69.41 h 8.53 v -21.05 c 20.79,11.47 39.07,36.8 54.4,75.45 17.07,43.05 29.54,100.37 37.07,170.39 14.27,132.72 3.8694,30.2056 9.8461,94.6864 h 5.68 c -4.0483,-49.9852 4.4039,37.6736 -9.8861,-95.2864 -14.94,-139.03 -49.35,-228.04 -97.1,-251.63 v -256.4 l 10.34,-0.04 -0.8,-104.69 -9.54,0.03 v -2.86 h -109.1201 v 40.93 c 0,35.36 -28.77,64.13 -64.13,64.13 h -111.57 c -35.35999,0 -64.13004,-28.77 -64.13004,-64.13 v -40.93 h -84.32998 l 78.01998,-32 -37.33,-91.03 c -6.47,-15.78 -6.38,-33.2 0.25,-49.05 6.63,-15.85 18.97,-28.15 34.75,-34.62 l 103.23004,-42.33 c 15.78,-6.47 33.2,-6.38 49.05,0.25 15.85,6.63 28.15,18.97 34.62,34.75 l 37.33,91.03 93.09,-38.18 37.5401,91.55 18.25,-7.48 -56.9701,-138.91 -10.38,4.26 -71.45,-174.21999 -88.93,-37.2 -306.61002,125.73999 -37.2,88.93 88.3,215.3 v 384.5999 z m 467.72012,-382.85 3.91,-0.01 0.71,93.36 -4.62,0.02 z m -49.5201,2.81 h 38.1801 v 362.4 l -2.66,6.31 h -35.5201 z m -363.02004,0 h 52.24 v 29.59 c 0,41.62 33.86005,75.47 75.47004,75.47 h 111.57 c 41.62,0 75.47,-33.86 75.47,-75.47 v -29.59 h 42.6 v 368.71 H 888.78626 Z m -5.67,0 v 368.71 h -38.17998 v -368.71 z m 373.68004,-219.97 52.6701,128.42 -7.76,3.18 -35.3901,-86.3 2.62,-1.08 -17.27,-42.12 z m -87.45,-168.70999 84.79,206.74999 -14.06,5.77 -90.55,-220.80999 z m -378.19002,88.59999 297.92002,-122.17999 53.05,22.19 92.7,226.04999 -60.68,24.88 -33.03,-80.54 c -15.79,-38.5 -59.96,-56.98 -98.46,-41.19 l -103.23004,42.33 c -18.58,7.62 -33.11,22.09 -40.91,40.73 -7.8,18.65 -7.9,39.15 -0.28,57.73 l 33.03,80.54 -69.59998,28.54 -92.71,-226.05 z m -33.58,80.26 8.29,-19.82 90.55,220.81 -14.06,5.77 z"
   class="st0" /><path
   style="fill:#1a1a18"
   inkscape:connector-curvature="0"
   id="path830"
   d="m 565.27,1026.27 c -0.5,17.4 -0.58,32.94 -0.21,46.25 0.31,11.41 0.94,21.44 1.88,29.92 l -31.35,5.41 4.19,24.28 12.85,-2.22 11.05,63.98 -8.97,15.94 -1.47,0.25 24.81,143.71 -12.54,2.17 c -2.81,0.48 -5.26,2.04 -6.91,4.38 -1.65,2.34 -2.29,5.17 -1.81,7.98 l 14.12,81.79 c 0.48,2.8 2.04,5.26 4.38,6.91 1.83,1.29 3.96,1.96 6.15,1.96 0.61,0 1.22,-0.05 1.83,-0.16 l 3.49,-0.6 3.83,22.2 15.19,-2.62 15.98,92.56 -6.72,1.16 4.14,23.99 6.72,-1.16 19.37,112.16 27.9,-4.82 c 2.53,14.01 5.24,28.5 7.88,42.56 l 0.09,0.48 c 15.5,82.65 25.18915,159.2098 27.20915,314.0598 h 5.65995 C 711.88915,1902.8198 701.72,1823.68 686.72,1743.69 l -0.09,-0.48 c -2.63,-14.03 -5.34,-28.5 -7.87,-42.47 l 22.32,-3.85 c 2.91,16.26 5.38,29.44 7.78,42.22 l 0.08,0.43 c 15.82995,84.37 25.7291,162.0598 27.7691,319.2598 h 5.65 c -2.13,-158.3 -12.52915,-238.6598 -27.8491,-320.3098 l -0.08,-0.43 c -2.39,-12.75 -4.86,-25.92 -7.76,-42.14 l 26.55995,-4.59 -19.36995,-112.16 6.71995,-1.16 -4.14,-23.99 -6.71995,1.16 -15.98,-92.56 14.61,-2.52 -3.83,-22.2 4.07,-0.7 c 5.81,-1 9.71995,-6.54 8.70995,-12.35 L 703.18,1343.06 c -1,-5.81 -6.54,-9.72 -12.35,-8.71 l -12.54,2.17 -24.81,-143.71 -1.46,0.25 -13.8,-12.01 -11.05,-63.98 12.85,-2.22 -4.19,-24.28 -35.34,6.1 c -0.74,-7.12 -1.24,-15.49 -1.5,-24.95 -0.35,-12.93 -0.27,-28.23 0.25,-45.54 z m 161.37995,660.42 -21.00995,3.63 v 0 l -15.42,2.66 -40.35,6.97 -18.4,-106.58 76.78,-13.26 z M 711.79,1560.55 l 2.21,12.82 -90.22,15.58 -2.21,-12.82 z m -7.68,-4.43 -76.78,13.26 -15.98,-92.56 76.78,-13.26 z m -11.36,-99.11 -0.05,-0.29 -87.96,15.19 0.05,0.29 -9.6,1.66 -2.87,-16.61 5.27,-0.91 8.72,-1.49 v -0.02 l 44.88,-7.75 32.25,-5.57 0.01,0.05 15.46,-2.64 2.85,16.53 z m -110.27,-73.64 5.57,-0.95 11.71,67.79 -2.71,0.47 -2.87,0.49 z m 60.36,58.58 -11.71,-67.79 5.57,-0.95 11.71,67.79 z m 33.53,-74.72 5.57,-0.95 11.69,67.72 -5.57,0.96 z m 2.85,-25.15 12.54,-2.17 c 0.29,-0.05 0.57,-0.07 0.86,-0.07 2.4,0 4.52,1.73 4.94,4.17 l 14.12,81.79 c 0.47,2.73 -1.37,5.33 -4.09,5.8 l -4.07,0.7 -4.29,0.74 -12.66,-73.3 -16.75,2.86 12.66,73.33 -28.35,4.89 -12.8,-74.15 -16.75,2.86 12.81,74.19 -32.04,5.53 -12.67,-73.37 -16.75,2.86 12.67,73.4 -2.83,0.49 v 0 l -3.49,0.6 c -1.31,0.23 -2.64,-0.08 -3.74,-0.85 -1.1,-0.77 -1.83,-1.93 -2.06,-3.24 l -14.12,-81.79 c -0.23,-1.31 0.08,-2.64 0.85,-3.74 0.77,-1.1 1.93,-1.83 3.24,-2.06 l 92.48,-15.97 z m -6.55,-4.62 -39.25,6.78 -49.8,8.6 -9.88,-57.21 89.05,-15.38 z m -10.85,-62.8 -89.05,15.38 -1.45,-8.38 89.05,-15.38 z m -2.41,-13.97 -89.05,15.38 -1.47,-8.49 89.05,-15.38 z m -2.43,-14.07 -89.05,15.38 -1.51,-8.73 89.05,-15.38 z m -2.47,-14.32 -89.05,15.38 -5.69,-32.97 89.05,-15.38 z m -9.74,-38.02 -82.88,14.31 6.54,-11.62 66.28,-11.44 z m -12.49,-14.09 -63.35,10.94 -10.74,-62.18 63.35,-10.94 z m -31.19,-77.89 v 0 l 30.07,-5.19 2.26,13.11 -89.05,15.38 -2.26,-13.11 25.47,-4.4 v 0 z m -7.82,-30.44 c 0.27,9.76 0.79,18.41 1.57,25.76 l -22.34,3.86 c -0.89,-8.24 -1.5,-18.02 -1.8,-29.11 -0.36,-13.16 -0.29,-28.53 0.21,-45.75 3.68,0.18 7.21,0.27 10.43,0.27 4.13,0 8.2,-0.11 12.17,-0.33 -0.51,17.19 -0.59,32.4 -0.24,45.3 z"
   class="st0"
   sodipodi:nodetypes="cccccccccccscccscccccccccccccccccccccccccccccccccccccccccccccccccccccccccccccccccccccccccccccccccccccccccccccccccccscccccccccccccccccccsccscccccccccccccccccccccccccccccccccccccccccccccccccccccscc" /></g>
</svg>